2700 0 2 0           
15 RobotStudioIRC5 12 ACIS 27.0 NT 24 Fri Nov 24 10:01:01 2017 
1000 1e-08 1e-10 
T @52 7ERF2NTUGWT56HTT78Z4JBS_55SBKB76D8G4QCQ5YCPCFE56KCP4 
body $2 -1 -1 $-1 0 $3 $-1 $4 T 0 0.82663037109375004 0 0.29999999999999999 1.0266303710937501 0.14999999999999999 #
body $5 -1 -1 $-1 0 $6 $-1 $7 T 0.032316617102710249 0.88686999511718756 0.14999999999999999 0.17777822375733915 0.95411969447204359 0.18000000000000002 #
rgb_color-st-attrib $-1 -1 $8 $-1 $0 2 1 2 1 1 1 1 1 1 1 1 1 1 1 0 1 1 1 1 1 0.50196078431372548 #
lump $-1 -1 -1 $-1 $-1 $9 $0 T 0 0.82663037109375004 0 0.29999999999999999 1.0266303710937501 0.14999999999999999 #
transform $-1 -1 0 1 0 -1 0 0 0 -0 1 1.0266300000000002 0 -2.0709471895696829e-07 1 rotate no_reflect no_shear #
rgb_color-st-attrib $-1 -1 $10 $-1 $1 2 1 2 1 1 1 1 1 1 1 1 1 1 1 0 1 1 1 1 1 0 #
lump $-1 -1 -1 $-1 $-1 $11 $1 T 0.032316617102710249 0.88686999511718756 0.14999999999999999 0.17777822375733915 0.95411969447204359 0.18000000000000002 #
transform $-1 -1 0 1 0 -1 0 0 0 -0 1 1.0266300000000002 0 -2.0709471895696829e-07 1 rotate no_reflect no_shear #
render-rbase-attrib $-1 -1 $12 $2 $0 1 1 1 1 1 1 1 1 1 1 1 1 0 1 0 1 1 1 $13 $-1 0 0 #
shell $14 -1 -1 $-1 $-1 $-1 $15 $-1 $3 T 0 0.82663037109375004 0 0.29999999999999999 1.0266303710937501 0.14999999999999999 #
render-rbase-attrib $-1 -1 $16 $5 $1 1 1 1 1 1 1 1 1 1 1 1 1 0 1 0 1 1 1 $17 $-1 0 0 #
shell $18 -1 -1 $-1 $-1 $-1 $19 $-1 $6 T 0.032316617102710249 0.88686999511718756 0.14999999999999999 0.17777822375733915 0.95411969447204359 0.18000000000000002 #
pse_ptr-ps-attrib $-1 -1 $20 $8 $0 1 1 1 1 1 1 1 1 1 1 1 1 0 1 0 1 1 1 #
rh_material-rh_entity $-1 -1 4 5 @5 plain @5 color -4 1 1 0.50196078431372548 @5 phong @14 ambient factor -2 1 @14 diffuse factor -2 1 @15 specular factor -2 0.75 @8 exponent -2 30 @14 specular color -4 1 1 1 @4 none @5 plain @5 color -4 1 1 1 #
pse_ptr-ps-attrib $-1 -1 $-1 $-1 $9 1 1 1 1 1 1 1 1 1 1 1 1 0 1 0 1 1 1 #
face $21 -1 -1 $-1 $22 $23 $9 $-1 $24 forward single T 0 0.82663037109375004 0.14999999999999999 0.29999999999999999 1.0266303710937501 0.14999999999999999 F #
pse_material-ps-attrib $-1 -1 $25 $10 $1 1 1 1 1 1 1 1 1 1 1 1 1 0 1 0 1 1 1 30 0.5 0.5 0.29607844352722168 1 0.66600000858306885 0.66600000858306885 0.3943764865398407 1 1 1 0.59215688705444336 1 0.375 0.375 0.375 1 #
rh_material-rh_entity $-1 -1 4 5 @5 plain @5 color -4 1 1 0 @5 phong @14 ambient factor -2 1 @14 diffuse factor -2 1 @15 specular factor -2 0.75 @8 exponent -2 30 @14 specular color -4 1 1 1 @4 none @5 plain @5 color -4 1 1 1 #
pse_ptr-ps-attrib $-1 -1 $-1 $-1 $11 1 1 1 1 1 1 1 1 1 1 1 1 0 1 0 1 1 1 #
face $26 -1 -1 $-1 $27 $28 $11 $-1 $29 forward single T 0.032316617102710249 0.88686999511718756 0.17999999999999999 0.17777822375733915 0.95411969447204359 0.17999999999999999 F #
pse_material-ps-attrib $-1 -1 $30 $12 $0 1 1 1 1 1 1 1 1 1 1 1 1 0 1 0 1 1 1 30 0.29019609093666077 0.29019609093666077 0.14313726127147675 1 0.38654118776321411 0.38654118776321411 0.19065883755683899 1 0.58039218187332153 0.58039218187332153 0.28627452254295349 1 0.375 0.375 0.375 1 #
render-rbase-attrib $-1 -1 $31 $-1 $15 1 1 1 1 1 1 1 1 1 1 1 1 0 1 0 1 1 1 $32 $-1 0 1 0 1 0 -1 0 0 0 -0 1 1.0266300000000002 0 -2.0709471895696829e-07 1 rotate no_reflect no_shear #
face $33 -1 -1 $-1 $34 $35 $9 $-1 $36 reversed single T 0 0.82663037109375004 0 0.29999999999999999 1.0266303710937501 0 F #
loop $37 -1 -1 $-1 $-1 $38 $15 T 0 0.82663037109375004 0.14999999999999999 0.29999999999999999 1.0266303710937501 0.14999999999999999 unknown #
plane-surface $-1 -1 -1 $-1 0.14999999999999999 0.92663037109375002 0.14999999999999999 0 0 1 0.001 0 0 forward_v I I I I #
pse_color-ps-attrib $-1 -1 $39 $16 $1 1 1 1 1 1 1 1 1 1 1 1 1 0 1 0 1 1 1 16777111 #
render-rbase-attrib $-1 -1 $40 $-1 $19 1 1 1 1 1 1 1 1 1 1 1 1 0 1 0 1 1 1 $41 $-1 0 1 0 1 0 -1 0 0 0 -0 1 1.0266300000000002 0 -2.0709471895696829e-07 1 rotate no_reflect no_shear #
face $42 -1 -1 $-1 $43 $44 $11 $-1 $45 reversed single T 0.032316617102710249 0.88686999511718756 0.14999999999999999 0.17777822375733915 0.95411969447204359 0.14999999999999999 F #
loop $46 -1 -1 $-1 $-1 $47 $19 T 0.032316617102710249 0.88686999511718756 0.17999999999999999 0.17777822375733915 0.95411969447204359 0.17999999999999999 unknown #
plane-surface $-1 -1 -1 $-1 0.10504742043002468 0.92049484479461552 0.17999999999999999 0 0 1.0000000000000002 0.00096674805462914899 0.00025573071554030471 0 forward_v I I I I #
pse_color-ps-attrib $-1 -1 $-1 $20 $0 1 1 1 1 1 1 1 1 1 1 1 1 0 1 0 1 1 1 9737289 #
rgb_color-st-attrib $-1 -1 $48 $21 $15 2 1 2 1 1 1 1 1 1 1 1 1 1 1 0 1 1 1 1 1 0.50196078431372548 #
rh_material-rh_entity $-1 -1 4 5 @5 plain @5 color -4 1 1 0.50196078431372548 @5 phong @14 ambient factor -2 1 @14 diffuse factor -2 1 @15 specular factor -2 0.75 @8 exponent -2 30 @14 specular color -4 1 1 1 @4 none @5 plain @5 color -4 1 1 1 #
render-rbase-attrib $-1 -1 $49 $-1 $22 1 1 1 1 1 1 1 1 1 1 1 1 0 1 0 1 1 1 $50 $-1 0 1 0 1 0 -1 0 0 0 -0 1 1.0266300000000002 0 -2.0709471895696829e-07 1 rotate no_reflect no_shear #
face $51 -1 -1 $-1 $52 $53 $9 $-1 $54 reversed single T 0 0.82663037109375004 0 0.29999999999999999 0.82663037109375004 0.14999999999999999 F #
loop $55 -1 -1 $-1 $-1 $56 $22 T 0 0.82663037109375004 0 0.29999999999999999 1.0266303710937501 0 unknown #
plane-surface $-1 -1 -1 $-1 0.14999999999999999 0.92663037109375002 0 0 0 1 0.001 0 0 forward_v I I I I #
pse_ptr-ps-attrib $-1 -1 $-1 $-1 $23 1 1 1 1 1 1 1 1 1 1 1 1 0 1 0 1 1 1 #
coedge $57 -1 -1 $-1 $58 $59 $60 $61 forward $23 $-1 #
pse_ptr-ps-attrib $-1 -1 $-1 $25 $1 1 1 1 1 1 1 1 1 1 1 1 1 0 1 0 1 1 1 #
rgb_color-st-attrib $-1 -1 $62 $26 $19 2 1 2 1 1 1 1 1 1 1 1 1 1 1 0 1 1 1 1 1 0 #
rh_material-rh_entity $-1 -1 4 5 @5 plain @5 color -4 1 1 0 @5 phong @14 ambient factor -2 1 @14 diffuse factor -2 1 @15 specular factor -2 0.75 @8 exponent -2 30 @14 specular color -4 1 1 1 @4 none @5 plain @5 color -4 1 1 1 #
render-rbase-attrib $-1 -1 $63 $-1 $27 1 1 1 1 1 1 1 1 1 1 1 1 0 1 0 1 1 1 $64 $-1 0 1 0 1 0 -1 0 0 0 -0 1 1.0266300000000002 0 -2.0709471895696829e-07 1 rotate no_reflect no_shear #
face $65 -1 -1 $-1 $66 $67 $11 $-1 $68 reversed single T 0.04049999999999998 0.88686999511718756 0.14999999999999999 0.17777822375733915 0.92318375672391084 0.18000000000000002 F #
loop $69 -1 -1 $-1 $-1 $70 $27 T 0.032316617102710249 0.88686999511718756 0.14999999999999999 0.17777822375733915 0.95411969447204359 0.14999999999999999 unknown #
plane-surface $-1 -1 -1 $-1 0.10504742043002468 0.92049484479461552 0.14999999999999999 0 0 1.0000000000000002 0.00096674805462914899 0.00025573071554030471 0 forward_v I I I I #
pse_ptr-ps-attrib $-1 -1 $-1 $-1 $28 1 1 1 1 1 1 1 1 1 1 1 1 0 1 0 1 1 1 #
coedge $71 -1 -1 $-1 $72 $73 $74 $75 forward $28 $-1 #
pse_ptr-ps-attrib $-1 -1 $-1 $31 $15 1 1 1 1 1 1 1 1 1 1 1 1 0 1 0 1 1 1 #
rgb_color-st-attrib $-1 -1 $76 $33 $22 2 1 2 1 1 1 1 1 1 1 1 1 1 1 0 1 1 1 1 1 0.50196078431372548 #
rh_material-rh_entity $-1 -1 4 5 @5 plain @5 color -4 1 1 0.50196078431372548 @5 phong @14 ambient factor -2 1 @14 diffuse factor -2 1 @15 specular factor -2 0.75 @8 exponent -2 30 @14 specular color -4 1 1 1 @4 none @5 plain @5 color -4 1 1 1 #
render-rbase-attrib $-1 -1 $77 $-1 $34 1 1 1 1 1 1 1 1 1 1 1 1 0 1 0 1 1 1 $78 $-1 0 1 0 1 0 -1 0 0 0 -0 1 1.0266300000000002 0 -2.0709471895696829e-07 1 rotate no_reflect no_shear #
face $79 -1 -1 $-1 $80 $81 $9 $-1 $82 reversed single T 0 0.82663037109375004 0 0 1.0266303710937501 0.14999999999999999 F #
loop $83 -1 -1 $-1 $-1 $84 $34 T 0 0.82663037109375004 0 0.29999999999999999 0.82663037109375004 0.14999999999999999 unknown #
plane-surface $-1 -1 -1 $-1 0.14999999999999999 0.82663037109375004 0.074999999999999997 0 1 0 0 0 0.001 forward_v I I I I #
pse_ptr-ps-attrib $-1 -1 $-1 $-1 $35 1 1 1 1 1 1 1 1 1 1 1 1 0 1 0 1 1 1 #
coedge $85 -1 -1 $-1 $86 $87 $88 $89 forward $35 $-1 #
pse_ptr-ps-attrib $-1 -1 $-1 $-1 $38 1 1 1 1 1 1 1 1 1 1 1 1 0 1 0 1 1 1 #
coedge $90 -1 -1 $-1 $91 $38 $92 $93 forward $23 $-1 #
coedge $94 -1 -1 $-1 $38 $91 $95 $96 forward $23 $-1 #
coedge $97 -1 -1 $-1 $98 $99 $38 $61 reversed $100 $-1 #
edge $101 -1 -1 $-1 $102 -100 $103 100 $60 $104 forward @7 unknown T 0.29999999999999999 0.82663037109375004 0.14999999999999999 0.29999999999999999 1.0266303710937501 0.14999999999999999 #
pse_ptr-ps-attrib $-1 -1 $-1 $40 $19 1 1 1 1 1 1 1 1 1 1 1 1 0 1 0 1 1 1 #
rgb_color-st-attrib $-1 -1 $105 $42 $27 2 1 2 1 1 1 1 1 1 1 1 1 1 1 0 1 1 1 1 1 0 #
rh_material-rh_entity $-1 -1 4 5 @5 plain @5 color -4 1 1 0 @5 phong @14 ambient factor -2 1 @14 diffuse factor -2 1 @15 specular factor -2 0.75 @8 exponent -2 30 @14 specular color -4 1 1 1 @4 none @5 plain @5 color -4 1 1 1 #
render-rbase-attrib $-1 -1 $106 $-1 $43 1 1 1 1 1 1 1 1 1 1 1 1 0 1 0 1 1 1 $107 $-1 0 1 0 1 0 -1 0 0 0 -0 1 1.0266300000000002 0 -2.0709471895696829e-07 1 rotate no_reflect no_shear #
face $108 -1 -1 $-1 $109 $110 $11 $-1 $111 reversed single T 0.032316617102710249 0.88686999511718756 0.14999999999999999 0.040500000000000001 0.91780593286532042 0.18000000000000002 F #
loop $112 -1 -1 $-1 $-1 $113 $43 T 0.04049999999999998 0.88686999511718756 0.14999999999999999 0.17777822375733915 0.92318375672391084 0.18000000000000002 unknown #
plane-surface $-1 -1 -1 $-1 0.10913911187866956 0.9050268759205492 0.16500000000000001 -0.25573071554030469 0.96674805462914892 0 0 0 0.0010000000000000002 forward_v I I I I #
pse_ptr-ps-attrib $-1 -1 $-1 $-1 $44 1 1 1 1 1 1 1 1 1 1 1 1 0 1 0 1 1 1 #
coedge $114 -1 -1 $-1 $115 $116 $117 $118 forward $44 $-1 #
pse_ptr-ps-attrib $-1 -1 $-1 $-1 $47 1 1 1 1 1 1 1 1 1 1 1 1 0 1 0 1 1 1 #
coedge $119 -1 -1 $-1 $120 $47 $121 $122 forward $28 $-1 #
coedge $123 -1 -1 $-1 $47 $120 $124 $125 forward $28 $-1 #
coedge $126 -1 -1 $-1 $127 $128 $47 $75 reversed $129 $-1 #
edge $130 -1 -1 $-1 $131 -16 $132 16 $74 $133 forward @7 unknown T 0.16959484086004939 0.92318375672391073 0.17999999999999999 0.17777822375733915 0.95411969447204359 0.17999999999999999 #
pse_ptr-ps-attrib $-1 -1 $-1 $49 $22 1 1 1 1 1 1 1 1 1 1 1 1 0 1 0 1 1 1 #
rgb_color-st-attrib $-1 -1 $134 $51 $34 2 1 2 1 1 1 1 1 1 1 1 1 1 1 0 1 1 1 1 1 0.50196078431372548 #
rh_material-rh_entity $-1 -1 4 5 @5 plain @5 color -4 1 1 0.50196078431372548 @5 phong @14 ambient factor -2 1 @14 diffuse factor -2 1 @15 specular factor -2 0.75 @8 exponent -2 30 @14 specular color -4 1 1 1 @4 none @5 plain @5 color -4 1 1 1 #
render-rbase-attrib $-1 -1 $135 $-1 $52 1 1 1 1 1 1 1 1 1 1 1 1 0 1 0 1 1 1 $136 $-1 0 1 0 1 0 -1 0 0 0 -0 1 1.0266300000000002 0 -2.0709471895696829e-07 1 rotate no_reflect no_shear #
face $137 -1 -1 $-1 $138 $139 $9 $-1 $140 reversed single T 0 1.0266303710937501 0 0.29999999999999999 1.0266303710937501 0.14999999999999999 F #
loop $141 -1 -1 $-1 $-1 $142 $52 T 0 0.82663037109375004 0 0 1.0266303710937501 0.14999999999999999 unknown #
plane-surface $-1 -1 -1 $-1 0 0.92663037109375002 0.074999999999999997 1 0 0 0 0 -0.001 forward_v I I I I #
pse_ptr-ps-attrib $-1 -1 $-1 $-1 $53 1 1 1 1 1 1 1 1 1 1 1 1 0 1 0 1 1 1 #
coedge $143 -1 -1 $-1 $144 $95 $145 $146 forward $53 $-1 #
pse_ptr-ps-attrib $-1 -1 $-1 $-1 $56 1 1 1 1 1 1 1 1 1 1 1 1 0 1 0 1 1 1 #
coedge $147 -1 -1 $-1 $148 $56 $144 $149 forward $35 $-1 #
coedge $150 -1 -1 $-1 $56 $148 $151 $152 forward $35 $-1 #
coedge $153 -1 -1 $-1 $99 $98 $56 $89 reversed $100 $-1 #
edge $154 -1 -1 $-1 $155 -100 $156 100 $88 $157 forward @7 unknown T 0.29999999999999999 0.82663037109375004 0 0.29999999999999999 1.0266303710937501 0 #
pse_ptr-ps-attrib $-1 -1 $-1 $-1 $58 1 1 1 1 1 1 1 1 1 1 1 1 0 1 0 1 1 1 #
coedge $158 -1 -1 $-1 $59 $58 $159 $160 forward $23 $-1 #
coedge $161 -1 -1 $-1 $162 $163 $58 $93 reversed $139 $-1 #
edge $164 -1 -1 $-1 $103 -150 $165 150 $92 $166 forward @7 unknown T 0 1.0266303710937501 0.14999999999999999 0.29999999999999999 1.0266303710937501 0.14999999999999999 #
pse_ptr-ps-attrib $-1 -1 $-1 $-1 $59 1 1 1 1 1 1 1 1 1 1 1 1 0 1 0 1 1 1 #
coedge $167 -1 -1 $-1 $84 $168 $59 $96 reversed $53 $-1 #
edge $169 -1 -1 $-1 $170 -150 $102 150 $95 $171 forward @7 unknown T 0 0.82663037109375004 0.14999999999999999 0.29999999999999999 0.82663037109375004 0.14999999999999999 #
pse_ptr-ps-attrib $-1 -1 $-1 $-1 $60 1 1 1 1 1 1 1 1 1 1 1 1 0 1 0 1 1 1 #
coedge $172 -1 -1 $-1 $88 $60 $168 $173 forward $100 $-1 #
coedge $174 -1 -1 $-1 $60 $88 $162 $175 reversed $100 $-1 #
loop $176 -1 -1 $-1 $-1 $98 $138 T 0.29999999999999999 0.82663037109375004 0 0.29999999999999999 1.0266303710937501 0.14999999999999999 unknown #
pse_ptr-ps-attrib $-1 -1 $-1 $-1 $61 1 1 1 1 1 1 1 1 1 1 1 1 0 1 0 1 1 1 #
vertex $177 -1 -1 $-1 $61 $178 #
vertex $179 -1 -1 $-1 $61 $180 #
straight-curve $-1 -1 -1 $-1 0.29999999999999999 0.92663037109375002 0.14999999999999999 0 0.001 0 I I #
pse_ptr-ps-attrib $-1 -1 $-1 $63 $27 1 1 1 1 1 1 1 1 1 1 1 1 0 1 0 1 1 1 #
rgb_color-st-attrib $-1 -1 $181 $65 $43 2 1 2 1 1 1 1 1 1 1 1 1 1 1 0 1 1 1 1 1 0 #
rh_material-rh_entity $-1 -1 4 5 @5 plain @5 color -4 1 1 0 @5 phong @14 ambient factor -2 1 @14 diffuse factor -2 1 @15 specular factor -2 0.75 @8 exponent -2 30 @14 specular color -4 1 1 1 @4 none @5 plain @5 color -4 1 1 1 #
render-rbase-attrib $-1 -1 $182 $-1 $66 1 1 1 1 1 1 1 1 1 1 1 1 0 1 0 1 1 1 $183 $-1 0 1 0 1 0 -1 0 0 0 -0 1 1.0266300000000002 0 -2.0709471895696829e-07 1 rotate no_reflect no_shear #
face $184 -1 -1 $-1 $185 $186 $11 $-1 $187 reversed single T 0.032316617102710249 0.91780593286532031 0.14999999999999999 0.16959484086004942 0.95411969447204359 0.18000000000000002 F #
loop $188 -1 -1 $-1 $-1 $189 $66 T 0.032316617102710249 0.88686999511718756 0.14999999999999999 0.040500000000000001 0.91780593286532042 0.18000000000000002 unknown #
plane-surface $-1 -1 -1 $-1 0.036408308551355129 0.90233796399125399 0.16500000000000001 0.96674805462914892 0.25573071554030469 0 0 0 -0.0010000000000000002 forward_v I I I I #
pse_ptr-ps-attrib $-1 -1 $-1 $-1 $67 1 1 1 1 1 1 1 1 1 1 1 1 0 1 0 1 1 1 #
coedge $190 -1 -1 $-1 $191 $124 $192 $193 forward $67 $-1 #
pse_ptr-ps-attrib $-1 -1 $-1 $-1 $70 1 1 1 1 1 1 1 1 1 1 1 1 0 1 0 1 1 1 #
coedge $194 -1 -1 $-1 $195 $70 $191 $196 forward $44 $-1 #
coedge $197 -1 -1 $-1 $70 $195 $198 $199 forward $44 $-1 #
coedge $200 -1 -1 $-1 $128 $127 $70 $118 reversed $129 $-1 #
edge $201 -1 -1 $-1 $202 -16 $203 16 $117 $204 forward @7 unknown T 0.16959484086004939 0.92318375672391073 0.14999999999999999 0.17777822375733915 0.95411969447204359 0.14999999999999999 #
pse_ptr-ps-attrib $-1 -1 $-1 $-1 $72 1 1 1 1 1 1 1 1 1 1 1 1 0 1 0 1 1 1 #
coedge $205 -1 -1 $-1 $73 $72 $206 $207 forward $28 $-1 #
coedge $208 -1 -1 $-1 $209 $210 $72 $122 reversed $186 $-1 #
edge $211 -1 -1 $-1 $132 -71 $212 71 $121 $213 forward @7 unknown T 0.032316617102710249 0.91780593286532031 0.17999999999999999 0.16959484086004942 0.95411969447204359 0.17999999999999999 #
pse_ptr-ps-attrib $-1 -1 $-1 $-1 $73 1 1 1 1 1 1 1 1 1 1 1 1 0 1 0 1 1 1 #
coedge $214 -1 -1 $-1 $113 $215 $73 $125 reversed $67 $-1 #
edge $216 -1 -1 $-1 $217 -71 $131 71 $124 $218 forward @7 unknown T 0.04049999999999998 0.88686999511718756 0.17999999999999999 0.17777822375733915 0.92318375672391084 0.17999999999999999 #
pse_ptr-ps-attrib $-1 -1 $-1 $-1 $74 1 1 1 1 1 1 1 1 1 1 1 1 0 1 0 1 1 1 #
coedge $219 -1 -1 $-1 $117 $74 $215 $220 forward $129 $-1 #
coedge $221 -1 -1 $-1 $74 $117 $209 $222 reversed $129 $-1 #
loop $223 -1 -1 $-1 $-1 $127 $185 T 0.16959484086004939 0.92318375672391073 0.14999999999999999 0.17777822375733915 0.95411969447204359 0.18000000000000002 unknown #
pse_ptr-ps-attrib $-1 -1 $-1 $-1 $75 1 1 1 1 1 1 1 1 1 1 1 1 0 1 0 1 1 1 #
vertex $224 -1 -1 $-1 $75 $225 #
vertex $226 -1 -1 $-1 $75 $227 #
straight-curve $-1 -1 -1 $-1 0.17368653230869427 0.93865172559797716 0.17999999999999999 -0.00025573071554030471 0.00096674805462914899 0 I I #
pse_ptr-ps-attrib $-1 -1 $-1 $77 $34 1 1 1 1 1 1 1 1 1 1 1 1 0 1 0 1 1 1 #
rgb_color-st-attrib $-1 -1 $228 $79 $52 2 1 2 1 1 1 1 1 1 1 1 1 1 1 0 1 1 1 1 1 0.50196078431372548 #
rh_material-rh_entity $-1 -1 4 5 @5 plain @5 color -4 1 1 0.50196078431372548 @5 phong @14 ambient factor -2 1 @14 diffuse factor -2 1 @15 specular factor -2 0.75 @8 exponent -2 30 @14 specular color -4 1 1 1 @4 none @5 plain @5 color -4 1 1 1 #
render-rbase-attrib $-1 -1 $229 $-1 $80 1 1 1 1 1 1 1 1 1 1 1 1 0 1 0 1 1 1 $230 $-1 0 1 0 1 0 -1 0 0 0 -0 1 1.0266300000000002 0 -2.0709471895696829e-07 1 rotate no_reflect no_shear #
face $231 -1 -1 $-1 $-1 $100 $9 $-1 $232 reversed single T 0.29999999999999999 0.82663037109375004 0 0.29999999999999999 1.0266303710937501 0.14999999999999999 F #
loop $233 -1 -1 $-1 $-1 $162 $80 T 0 1.0266303710937501 0 0.29999999999999999 1.0266303710937501 0.14999999999999999 unknown #
plane-surface $-1 -1 -1 $-1 0.14999999999999999 1.0266303710937501 0.074999999999999997 0 -1 0 0 0 -0.001 forward_v I I I I #
pse_ptr-ps-attrib $-1 -1 $-1 $-1 $81 1 1 1 1 1 1 1 1 1 1 1 1 0 1 0 1 1 1 #
coedge $234 -1 -1 $-1 $235 $159 $163 $236 forward $81 $-1 #
pse_ptr-ps-attrib $-1 -1 $-1 $-1 $84 1 1 1 1 1 1 1 1 1 1 1 1 0 1 0 1 1 1 #
coedge $237 -1 -1 $-1 $168 $84 $86 $149 reversed $53 $-1 #
coedge $238 -1 -1 $-1 $159 $235 $84 $146 reversed $81 $-1 #
edge $239 -1 -1 $-1 $170 -75 $240 75 $145 $241 forward @7 unknown T 0 0.82663037109375004 0 0 0.82663037109375004 0.14999999999999999 #
pse_ptr-ps-attrib $-1 -1 $-1 $-1 $86 1 1 1 1 1 1 1 1 1 1 1 1 0 1 0 1 1 1 #
coedge $242 -1 -1 $-1 $87 $86 $235 $243 forward $35 $-1 #
edge $244 -1 -1 $-1 $156 -150 $240 150 $144 $245 forward @7 unknown T 0 0.82663037109375004 0 0.29999999999999999 0.82663037109375004 0 #
pse_ptr-ps-attrib $-1 -1 $-1 $-1 $87 1 1 1 1 1 1 1 1 1 1 1 1 0 1 0 1 1 1 #
coedge $246 -1 -1 $-1 $163 $162 $87 $152 reversed $139 $-1 #
edge $247 -1 -1 $-1 $248 -150 $155 150 $151 $249 forward @7 unknown T 0 1.0266303710937501 0 0.29999999999999999 1.0266303710937501 0 #
pse_ptr-ps-attrib $-1 -1 $-1 $-1 $88 1 1 1 1 1 1 1 1 1 1 1 1 0 1 0 1 1 1 #
pse_ptr-ps-attrib $-1 -1 $-1 $-1 $89 1 1 1 1 1 1 1 1 1 1 1 1 0 1 0 1 1 1 #
vertex $250 -1 -1 $-1 $89 $251 #
vertex $252 -1 -1 $-1 $173 $253 #
straight-curve $-1 -1 -1 $-1 0.29999999999999999 0.92663037109375002 0 0 -0.001 0 I I #
pse_ptr-ps-attrib $-1 -1 $-1 $-1 $91 1 1 1 1 1 1 1 1 1 1 1 1 0 1 0 1 1 1 #
coedge $254 -1 -1 $-1 $142 $145 $91 $160 reversed $81 $-1 #
edge $255 -1 -1 $-1 $165 -100 $170 100 $159 $256 forward @7 unknown T 0 0.82663037109375004 0.14999999999999999 0 1.0266303710937501 0.14999999999999999 #
pse_ptr-ps-attrib $-1 -1 $-1 $-1 $92 1 1 1 1 1 1 1 1 1 1 1 1 0 1 0 1 1 1 #
coedge $257 -1 -1 $-1 $151 $92 $99 $175 forward $139 $-1 #
coedge $258 -1 -1 $-1 $92 $151 $142 $236 reversed $139 $-1 #
pse_ptr-ps-attrib $-1 -1 $-1 $-1 $93 1 1 1 1 1 1 1 1 1 1 1 1 0 1 0 1 1 1 #
vertex $259 -1 -1 $-1 $93 $260 #
straight-curve $-1 -1 -1 $-1 0.14999999999999999 1.0266303710937501 0.14999999999999999 -0.001 0 0 I I #
pse_ptr-ps-attrib $-1 -1 $-1 $-1 $95 1 1 1 1 1 1 1 1 1 1 1 1 0 1 0 1 1 1 #
coedge $261 -1 -1 $-1 $95 $144 $98 $173 reversed $53 $-1 #
pse_ptr-ps-attrib $-1 -1 $-1 $-1 $96 1 1 1 1 1 1 1 1 1 1 1 1 0 1 0 1 1 1 #
vertex $262 -1 -1 $-1 $160 $263 #
straight-curve $-1 -1 -1 $-1 0.14999999999999999 0.82663037109375004 0.14999999999999999 0.001 0 0 I I #
pse_ptr-ps-attrib $-1 -1 $-1 $-1 $98 1 1 1 1 1 1 1 1 1 1 1 1 0 1 0 1 1 1 #
edge $264 -1 -1 $-1 $102 -75 $156 75 $98 $265 forward @7 unknown T 0.29999999999999999 0.82663037109375004 0 0.29999999999999999 0.82663037109375004 0.14999999999999999 #
pse_ptr-ps-attrib $-1 -1 $-1 $-1 $99 1 1 1 1 1 1 1 1 1 1 1 1 0 1 0 1 1 1 #
edge $266 -1 -1 $-1 $103 -75 $155 75 $99 $267 forward @7 unknown T 0.29999999999999999 1.0266303710937501 0 0.29999999999999999 1.0266303710937501 0.14999999999999999 #
pse_ptr-ps-attrib $-1 -1 $-1 $-1 $100 1 1 1 1 1 1 1 1 1 1 1 1 0 1 0 1 1 1 #
pse_ptr-ps-attrib $-1 -1 $-1 $-1 $102 1 1 1 1 1 1 1 1 1 1 1 1 0 1 0 1 1 1 #
point $-1 -1 -1 $-1 0.29999999999999999 0.82663037109375004 0.14999999999999999 #
pse_ptr-ps-attrib $-1 -1 $-1 $-1 $103 1 1 1 1 1 1 1 1 1 1 1 1 0 1 0 1 1 1 #
point $-1 -1 -1 $-1 0.29999999999999999 1.0266303710937501 0.14999999999999999 #
pse_ptr-ps-attrib $-1 -1 $-1 $106 $43 1 1 1 1 1 1 1 1 1 1 1 1 0 1 0 1 1 1 #
rgb_color-st-attrib $-1 -1 $268 $108 $66 2 1 2 1 1 1 1 1 1 1 1 1 1 1 0 1 1 1 1 1 0 #
rh_material-rh_entity $-1 -1 4 5 @5 plain @5 color -4 1 1 0 @5 phong @14 ambient factor -2 1 @14 diffuse factor -2 1 @15 specular factor -2 0.75 @8 exponent -2 30 @14 specular color -4 1 1 1 @4 none @5 plain @5 color -4 1 1 1 #
render-rbase-attrib $-1 -1 $269 $-1 $109 1 1 1 1 1 1 1 1 1 1 1 1 0 1 0 1 1 1 $270 $-1 0 1 0 1 0 -1 0 0 0 -0 1 1.0266300000000002 0 -2.0709471895696829e-07 1 rotate no_reflect no_shear #
face $271 -1 -1 $-1 $-1 $129 $11 $-1 $272 reversed single T 0.16959484086004939 0.92318375672391073 0.14999999999999999 0.17777822375733915 0.95411969447204359 0.18000000000000002 F #
loop $273 -1 -1 $-1 $-1 $209 $109 T 0.032316617102710249 0.91780593286532031 0.14999999999999999 0.16959484086004942 0.95411969447204359 0.18000000000000002 unknown #
plane-surface $-1 -1 -1 $-1 0.10095572898137983 0.93596281366868195 0.16500000000000001 0.25573071554030469 -0.96674805462914892 0 0 0 -0.0010000000000000002 forward_v I I I I #
pse_ptr-ps-attrib $-1 -1 $-1 $-1 $110 1 1 1 1 1 1 1 1 1 1 1 1 0 1 0 1 1 1 #
coedge $274 -1 -1 $-1 $275 $206 $210 $276 forward $110 $-1 #
pse_ptr-ps-attrib $-1 -1 $-1 $-1 $113 1 1 1 1 1 1 1 1 1 1 1 1 0 1 0 1 1 1 #
coedge $277 -1 -1 $-1 $215 $113 $115 $196 reversed $67 $-1 #
coedge $278 -1 -1 $-1 $206 $275 $113 $193 reversed $110 $-1 #
edge $279 -1 -1 $-1 $217 -15 $280 15 $192 $281 forward @7 unknown T 0.040500000000000001 0.88686999511718756 0.14999999999999999 0.040500000000000001 0.88686999511718756 0.18000000000000002 #
pse_ptr-ps-attrib $-1 -1 $-1 $-1 $115 1 1 1 1 1 1 1 1 1 1 1 1 0 1 0 1 1 1 #
coedge $282 -1 -1 $-1 $116 $115 $275 $283 forward $44 $-1 #
edge $284 -1 -1 $-1 $203 -71 $280 71 $191 $285 forward @7 unknown T 0.04049999999999998 0.88686999511718756 0.14999999999999999 0.17777822375733915 0.92318375672391084 0.14999999999999999 #
pse_ptr-ps-attrib $-1 -1 $-1 $-1 $116 1 1 1 1 1 1 1 1 1 1 1 1 0 1 0 1 1 1 #
coedge $286 -1 -1 $-1 $210 $209 $116 $199 reversed $186 $-1 #
edge $287 -1 -1 $-1 $288 -71 $202 71 $198 $289 forward @7 unknown T 0.032316617102710249 0.91780593286532031 0.14999999999999999 0.16959484086004942 0.95411969447204359 0.14999999999999999 #
pse_ptr-ps-attrib $-1 -1 $-1 $-1 $117 1 1 1 1 1 1 1 1 1 1 1 1 0 1 0 1 1 1 #
pse_ptr-ps-attrib $-1 -1 $-1 $-1 $118 1 1 1 1 1 1 1 1 1 1 1 1 0 1 0 1 1 1 #
vertex $290 -1 -1 $-1 $118 $291 #
vertex $292 -1 -1 $-1 $220 $293 #
straight-curve $-1 -1 -1 $-1 0.17368653230869427 0.93865172559797716 0.14999999999999999 0.00025573071554030471 -0.00096674805462914899 0 I I #
pse_ptr-ps-attrib $-1 -1 $-1 $-1 $120 1 1 1 1 1 1 1 1 1 1 1 1 0 1 0 1 1 1 #
coedge $294 -1 -1 $-1 $189 $192 $120 $207 reversed $110 $-1 #
edge $295 -1 -1 $-1 $212 -16 $217 16 $206 $296 forward @7 unknown T 0.032316617102710249 0.88686999511718756 0.17999999999999999 0.040500000000000001 0.91780593286532042 0.17999999999999999 #
pse_ptr-ps-attrib $-1 -1 $-1 $-1 $121 1 1 1 1 1 1 1 1 1 1 1 1 0 1 0 1 1 1 #
coedge $297 -1 -1 $-1 $198 $121 $128 $222 forward $186 $-1 #
coedge $298 -1 -1 $-1 $121 $198 $189 $276 reversed $186 $-1 #
pse_ptr-ps-attrib $-1 -1 $-1 $-1 $122 1 1 1 1 1 1 1 1 1 1 1 1 0 1 0 1 1 1 #
vertex $299 -1 -1 $-1 $122 $300 #
straight-curve $-1 -1 -1 $-1 0.10095572898137983 0.93596281366868195 0.17999999999999999 -0.00096674805462914899 -0.00025573071554030471 0 I I #
pse_ptr-ps-attrib $-1 -1 $-1 $-1 $124 1 1 1 1 1 1 1 1 1 1 1 1 0 1 0 1 1 1 #
coedge $301 -1 -1 $-1 $124 $191 $127 $220 reversed $67 $-1 #
pse_ptr-ps-attrib $-1 -1 $-1 $-1 $125 1 1 1 1 1 1 1 1 1 1 1 1 0 1 0 1 1 1 #
vertex $302 -1 -1 $-1 $207 $303 #
straight-curve $-1 -1 -1 $-1 0.10913911187866956 0.9050268759205492 0.17999999999999999 0.00096674805462914899 0.00025573071554030471 0 I I #
pse_ptr-ps-attrib $-1 -1 $-1 $-1 $127 1 1 1 1 1 1 1 1 1 1 1 1 0 1 0 1 1 1 #
edge $304 -1 -1 $-1 $131 -15 $203 15 $127 $305 forward @7 unknown T 0.17777822375733915 0.92318375672391084 0.14999999999999999 0.17777822375733915 0.92318375672391084 0.18000000000000002 #
pse_ptr-ps-attrib $-1 -1 $-1 $-1 $128 1 1 1 1 1 1 1 1 1 1 1 1 0 1 0 1 1 1 #
edge $306 -1 -1 $-1 $132 -15 $202 15 $128 $307 forward @7 unknown T 0.16959484086004939 0.95411969447204359 0.14999999999999999 0.16959484086004939 0.95411969447204359 0.18000000000000002 #
pse_ptr-ps-attrib $-1 -1 $-1 $-1 $129 1 1 1 1 1 1 1 1 1 1 1 1 0 1 0 1 1 1 #
pse_ptr-ps-attrib $-1 -1 $-1 $-1 $131 1 1 1 1 1 1 1 1 1 1 1 1 0 1 0 1 1 1 #
point $-1 -1 -1 $-1 0.17777822375733915 0.92318375672391084 0.17999999999999999 #
pse_ptr-ps-attrib $-1 -1 $-1 $-1 $132 1 1 1 1 1 1 1 1 1 1 1 1 0 1 0 1 1 1 #
point $-1 -1 -1 $-1 0.16959484086004939 0.95411969447204359 0.17999999999999999 #
pse_ptr-ps-attrib $-1 -1 $-1 $135 $52 1 1 1 1 1 1 1 1 1 1 1 1 0 1 0 1 1 1 #
rgb_color-st-attrib $-1 -1 $308 $137 $80 2 1 2 1 1 1 1 1 1 1 1 1 1 1 0 1 1 1 1 1 0.50196078431372548 #
rh_material-rh_entity $-1 -1 4 5 @5 plain @5 color -4 1 1 0.50196078431372548 @5 phong @14 ambient factor -2 1 @14 diffuse factor -2 1 @15 specular factor -2 0.75 @8 exponent -2 30 @14 specular color -4 1 1 1 @4 none @5 plain @5 color -4 1 1 1 #
render-rbase-attrib $-1 -1 $309 $-1 $138 1 1 1 1 1 1 1 1 1 1 1 1 0 1 0 1 1 1 $310 $-1 0 1 0 1 0 -1 0 0 0 -0 1 1.0266300000000002 0 -2.0709471895696829e-07 1 rotate no_reflect no_shear #
plane-surface $-1 -1 -1 $-1 0.29999999999999999 0.92663037109375002 0.074999999999999997 -1 0 0 0 0 0.001 forward_v I I I I #
pse_ptr-ps-attrib $-1 -1 $-1 $-1 $139 1 1 1 1 1 1 1 1 1 1 1 1 0 1 0 1 1 1 #
pse_ptr-ps-attrib $-1 -1 $-1 $-1 $142 1 1 1 1 1 1 1 1 1 1 1 1 0 1 0 1 1 1 #
coedge $311 -1 -1 $-1 $145 $142 $148 $243 reversed $81 $-1 #
edge $312 -1 -1 $-1 $165 -75 $248 75 $163 $313 forward @7 unknown T 0 1.0266303710937501 0 0 1.0266303710937501 0.14999999999999999 #
pse_ptr-ps-attrib $-1 -1 $-1 $-1 $144 1 1 1 1 1 1 1 1 1 1 1 1 0 1 0 1 1 1 #
pse_ptr-ps-attrib $-1 -1 $-1 $-1 $145 1 1 1 1 1 1 1 1 1 1 1 1 0 1 0 1 1 1 #
pse_ptr-ps-attrib $-1 -1 $-1 $-1 $146 1 1 1 1 1 1 1 1 1 1 1 1 0 1 0 1 1 1 #
vertex $314 -1 -1 $-1 $243 $315 #
straight-curve $-1 -1 -1 $-1 0 0.82663037109375004 0.074999999999999997 0 0 -0.001 I I #
pse_ptr-ps-attrib $-1 -1 $-1 $-1 $148 1 1 1 1 1 1 1 1 1 1 1 1 0 1 0 1 1 1 #
edge $316 -1 -1 $-1 $240 -100 $248 100 $235 $317 forward @7 unknown T 0 0.82663037109375004 0 0 1.0266303710937501 0 #
pse_ptr-ps-attrib $-1 -1 $-1 $-1 $149 1 1 1 1 1 1 1 1 1 1 1 1 0 1 0 1 1 1 #
straight-curve $-1 -1 -1 $-1 0.14999999999999999 0.82663037109375004 0 -0.001 0 0 I I #
pse_ptr-ps-attrib $-1 -1 $-1 $-1 $151 1 1 1 1 1 1 1 1 1 1 1 1 0 1 0 1 1 1 #
pse_ptr-ps-attrib $-1 -1 $-1 $-1 $152 1 1 1 1 1 1 1 1 1 1 1 1 0 1 0 1 1 1 #
vertex $318 -1 -1 $-1 $152 $319 #
straight-curve $-1 -1 -1 $-1 0.14999999999999999 1.0266303710937501 0 0.001 0 0 I I #
pse_ptr-ps-attrib $-1 -1 $-1 $-1 $155 1 1 1 1 1 1 1 1 1 1 1 1 0 1 0 1 1 1 #
point $-1 -1 -1 $-1 0.29999999999999999 1.0266303710937501 0 #
pse_ptr-ps-attrib $-1 -1 $-1 $-1 $156 1 1 1 1 1 1 1 1 1 1 1 1 0 1 0 1 1 1 #
point $-1 -1 -1 $-1 0.29999999999999999 0.82663037109375004 0 #
pse_ptr-ps-attrib $-1 -1 $-1 $-1 $159 1 1 1 1 1 1 1 1 1 1 1 1 0 1 0 1 1 1 #
pse_ptr-ps-attrib $-1 -1 $-1 $-1 $160 1 1 1 1 1 1 1 1 1 1 1 1 0 1 0 1 1 1 #
straight-curve $-1 -1 -1 $-1 0 0.92663037109375002 0.14999999999999999 0 -0.001 0 I I #
pse_ptr-ps-attrib $-1 -1 $-1 $-1 $162 1 1 1 1 1 1 1 1 1 1 1 1 0 1 0 1 1 1 #
pse_ptr-ps-attrib $-1 -1 $-1 $-1 $163 1 1 1 1 1 1 1 1 1 1 1 1 0 1 0 1 1 1 #
pse_ptr-ps-attrib $-1 -1 $-1 $-1 $165 1 1 1 1 1 1 1 1 1 1 1 1 0 1 0 1 1 1 #
point $-1 -1 -1 $-1 0 1.0266303710937501 0.14999999999999999 #
pse_ptr-ps-attrib $-1 -1 $-1 $-1 $168 1 1 1 1 1 1 1 1 1 1 1 1 0 1 0 1 1 1 #
pse_ptr-ps-attrib $-1 -1 $-1 $-1 $170 1 1 1 1 1 1 1 1 1 1 1 1 0 1 0 1 1 1 #
point $-1 -1 -1 $-1 0 0.82663037109375004 0.14999999999999999 #
pse_ptr-ps-attrib $-1 -1 $-1 $-1 $173 1 1 1 1 1 1 1 1 1 1 1 1 0 1 0 1 1 1 #
straight-curve $-1 -1 -1 $-1 0.29999999999999999 0.82663037109375004 0.074999999999999997 0 0 -0.001 I I #
pse_ptr-ps-attrib $-1 -1 $-1 $-1 $175 1 1 1 1 1 1 1 1 1 1 1 1 0 1 0 1 1 1 #
straight-curve $-1 -1 -1 $-1 0.29999999999999999 1.0266303710937501 0.074999999999999997 0 0 -0.001 I I #
pse_ptr-ps-attrib $-1 -1 $-1 $182 $66 1 1 1 1 1 1 1 1 1 1 1 1 0 1 0 1 1 1 #
rgb_color-st-attrib $-1 -1 $320 $184 $109 2 1 2 1 1 1 1 1 1 1 1 1 1 1 0 1 1 1 1 1 0 #
rh_material-rh_entity $-1 -1 4 5 @5 plain @5 color -4 1 1 0 @5 phong @14 ambient factor -2 1 @14 diffuse factor -2 1 @15 specular factor -2 0.75 @8 exponent -2 30 @14 specular color -4 1 1 1 @4 none @5 plain @5 color -4 1 1 1 #
render-rbase-attrib $-1 -1 $321 $-1 $185 1 1 1 1 1 1 1 1 1 1 1 1 0 1 0 1 1 1 $322 $-1 0 1 0 1 0 -1 0 0 0 -0 1 1.0266300000000002 0 -2.0709471895696829e-07 1 rotate no_reflect no_shear #
plane-surface $-1 -1 -1 $-1 0.17368653230869427 0.93865172559797716 0.16500000000000001 -0.96674805462914892 -0.25573071554030469 0 0 0 0.0010000000000000002 forward_v I I I I #
pse_ptr-ps-attrib $-1 -1 $-1 $-1 $186 1 1 1 1 1 1 1 1 1 1 1 1 0 1 0 1 1 1 #
pse_ptr-ps-attrib $-1 -1 $-1 $-1 $189 1 1 1 1 1 1 1 1 1 1 1 1 0 1 0 1 1 1 #
coedge $323 -1 -1 $-1 $192 $189 $195 $283 reversed $110 $-1 #
edge $324 -1 -1 $-1 $212 -15 $288 15 $210 $325 forward @7 unknown T 0.032316617102710249 0.91780593286532031 0.14999999999999999 0.032316617102710249 0.91780593286532031 0.18000000000000002 #
pse_ptr-ps-attrib $-1 -1 $-1 $-1 $191 1 1 1 1 1 1 1 1 1 1 1 1 0 1 0 1 1 1 #
pse_ptr-ps-attrib $-1 -1 $-1 $-1 $192 1 1 1 1 1 1 1 1 1 1 1 1 0 1 0 1 1 1 #
pse_ptr-ps-attrib $-1 -1 $-1 $-1 $193 1 1 1 1 1 1 1 1 1 1 1 1 0 1 0 1 1 1 #
vertex $326 -1 -1 $-1 $283 $327 #
straight-curve $-1 -1 -1 $-1 0.040500000000000001 0.88686999511718756 0.16500000000000001 0 0 -0.0010000000000000002 I I #
pse_ptr-ps-attrib $-1 -1 $-1 $-1 $195 1 1 1 1 1 1 1 1 1 1 1 1 0 1 0 1 1 1 #
edge $328 -1 -1 $-1 $280 -16 $288 16 $275 $329 forward @7 unknown T 0.032316617102710249 0.88686999511718756 0.14999999999999999 0.040500000000000001 0.91780593286532042 0.14999999999999999 #
pse_ptr-ps-attrib $-1 -1 $-1 $-1 $196 1 1 1 1 1 1 1 1 1 1 1 1 0 1 0 1 1 1 #
straight-curve $-1 -1 -1 $-1 0.10913911187866956 0.9050268759205492 0.14999999999999999 -0.00096674805462914899 -0.00025573071554030471 0 I I #
pse_ptr-ps-attrib $-1 -1 $-1 $-1 $198 1 1 1 1 1 1 1 1 1 1 1 1 0 1 0 1 1 1 #
pse_ptr-ps-attrib $-1 -1 $-1 $-1 $199 1 1 1 1 1 1 1 1 1 1 1 1 0 1 0 1 1 1 #
vertex $330 -1 -1 $-1 $199 $331 #
straight-curve $-1 -1 -1 $-1 0.10095572898137983 0.93596281366868195 0.14999999999999999 0.00096674805462914899 0.00025573071554030471 0 I I #
pse_ptr-ps-attrib $-1 -1 $-1 $-1 $202 1 1 1 1 1 1 1 1 1 1 1 1 0 1 0 1 1 1 #
point $-1 -1 -1 $-1 0.16959484086004939 0.95411969447204359 0.14999999999999999 #
pse_ptr-ps-attrib $-1 -1 $-1 $-1 $203 1 1 1 1 1 1 1 1 1 1 1 1 0 1 0 1 1 1 #
point $-1 -1 -1 $-1 0.17777822375733915 0.92318375672391084 0.14999999999999999 #
pse_ptr-ps-attrib $-1 -1 $-1 $-1 $206 1 1 1 1 1 1 1 1 1 1 1 1 0 1 0 1 1 1 #
pse_ptr-ps-attrib $-1 -1 $-1 $-1 $207 1 1 1 1 1 1 1 1 1 1 1 1 0 1 0 1 1 1 #
straight-curve $-1 -1 -1 $-1 0.036408308551355129 0.90233796399125399 0.17999999999999999 0.00025573071554030471 -0.00096674805462914899 0 I I #
pse_ptr-ps-attrib $-1 -1 $-1 $-1 $209 1 1 1 1 1 1 1 1 1 1 1 1 0 1 0 1 1 1 #
pse_ptr-ps-attrib $-1 -1 $-1 $-1 $210 1 1 1 1 1 1 1 1 1 1 1 1 0 1 0 1 1 1 #
pse_ptr-ps-attrib $-1 -1 $-1 $-1 $212 1 1 1 1 1 1 1 1 1 1 1 1 0 1 0 1 1 1 #
point $-1 -1 -1 $-1 0.032316617102710249 0.91780593286532031 0.17999999999999999 #
pse_ptr-ps-attrib $-1 -1 $-1 $-1 $215 1 1 1 1 1 1 1 1 1 1 1 1 0 1 0 1 1 1 #
pse_ptr-ps-attrib $-1 -1 $-1 $-1 $217 1 1 1 1 1 1 1 1 1 1 1 1 0 1 0 1 1 1 #
point $-1 -1 -1 $-1 0.040500000000000001 0.88686999511718756 0.17999999999999999 #
pse_ptr-ps-attrib $-1 -1 $-1 $-1 $220 1 1 1 1 1 1 1 1 1 1 1 1 0 1 0 1 1 1 #
straight-curve $-1 -1 -1 $-1 0.17777822375733915 0.92318375672391084 0.16500000000000001 0 0 -0.0010000000000000002 I I #
pse_ptr-ps-attrib $-1 -1 $-1 $-1 $222 1 1 1 1 1 1 1 1 1 1 1 1 0 1 0 1 1 1 #
straight-curve $-1 -1 -1 $-1 0.16959484086004939 0.95411969447204359 0.16500000000000001 0 0 -0.0010000000000000002 I I #
pse_ptr-ps-attrib $-1 -1 $-1 $229 $80 1 1 1 1 1 1 1 1 1 1 1 1 0 1 0 1 1 1 #
rgb_color-st-attrib $-1 -1 $332 $231 $138 2 1 2 1 1 1 1 1 1 1 1 1 1 1 0 1 1 1 1 1 0.50196078431372548 #
rh_material-rh_entity $-1 -1 4 5 @5 plain @5 color -4 1 1 0.50196078431372548 @5 phong @14 ambient factor -2 1 @14 diffuse factor -2 1 @15 specular factor -2 0.75 @8 exponent -2 30 @14 specular color -4 1 1 1 @4 none @5 plain @5 color -4 1 1 1 #
pse_ptr-ps-attrib $-1 -1 $-1 $-1 $235 1 1 1 1 1 1 1 1 1 1 1 1 0 1 0 1 1 1 #
pse_ptr-ps-attrib $-1 -1 $-1 $-1 $236 1 1 1 1 1 1 1 1 1 1 1 1 0 1 0 1 1 1 #
straight-curve $-1 -1 -1 $-1 0 1.0266303710937501 0.074999999999999997 0 0 -0.001 I I #
pse_ptr-ps-attrib $-1 -1 $-1 $-1 $240 1 1 1 1 1 1 1 1 1 1 1 1 0 1 0 1 1 1 #
point $-1 -1 -1 $-1 0 0.82663037109375004 0 #
pse_ptr-ps-attrib $-1 -1 $-1 $-1 $243 1 1 1 1 1 1 1 1 1 1 1 1 0 1 0 1 1 1 #
straight-curve $-1 -1 -1 $-1 0 0.92663037109375002 0 0 0.001 0 I I #
pse_ptr-ps-attrib $-1 -1 $-1 $-1 $248 1 1 1 1 1 1 1 1 1 1 1 1 0 1 0 1 1 1 #
point $-1 -1 -1 $-1 0 1.0266303710937501 0 #
pse_ptr-ps-attrib $-1 -1 $-1 $269 $109 1 1 1 1 1 1 1 1 1 1 1 1 0 1 0 1 1 1 #
rgb_color-st-attrib $-1 -1 $333 $271 $185 2 1 2 1 1 1 1 1 1 1 1 1 1 1 0 1 1 1 1 1 0 #
rh_material-rh_entity $-1 -1 4 5 @5 plain @5 color -4 1 1 0 @5 phong @14 ambient factor -2 1 @14 diffuse factor -2 1 @15 specular factor -2 0.75 @8 exponent -2 30 @14 specular color -4 1 1 1 @4 none @5 plain @5 color -4 1 1 1 #
pse_ptr-ps-attrib $-1 -1 $-1 $-1 $275 1 1 1 1 1 1 1 1 1 1 1 1 0 1 0 1 1 1 #
pse_ptr-ps-attrib $-1 -1 $-1 $-1 $276 1 1 1 1 1 1 1 1 1 1 1 1 0 1 0 1 1 1 #
straight-curve $-1 -1 -1 $-1 0.032316617102710249 0.91780593286532031 0.16500000000000001 0 0 -0.0010000000000000002 I I #
pse_ptr-ps-attrib $-1 -1 $-1 $-1 $280 1 1 1 1 1 1 1 1 1 1 1 1 0 1 0 1 1 1 #
point $-1 -1 -1 $-1 0.040500000000000001 0.88686999511718756 0.14999999999999999 #
pse_ptr-ps-attrib $-1 -1 $-1 $-1 $283 1 1 1 1 1 1 1 1 1 1 1 1 0 1 0 1 1 1 #
straight-curve $-1 -1 -1 $-1 0.036408308551355129 0.90233796399125399 0.14999999999999999 -0.00025573071554030471 0.00096674805462914899 0 I I #
pse_ptr-ps-attrib $-1 -1 $-1 $-1 $288 1 1 1 1 1 1 1 1 1 1 1 1 0 1 0 1 1 1 #
point $-1 -1 -1 $-1 0.032316617102710249 0.91780593286532031 0.14999999999999999 #
pse_ptr-ps-attrib $-1 -1 $-1 $309 $138 1 1 1 1 1 1 1 1 1 1 1 1 0 1 0 1 1 1 #
pse_ptr-ps-attrib $-1 -1 $-1 $321 $185 1 1 1 1 1 1 1 1 1 1 1 1 0 1 0 1 1 1 #
End-of-ACIS-data 