1900 0 1 0           
15 RobotStudioIRC5 12 ACIS 19.0 NT 24 Wed Sep 03 11:07:33 2008 
1 1.0000000000000001e-005 1e-010 
body $1 -1 -1 $-1 $2 $-1 $3 F #
integer_attrib-name_attrib-gen-attrib $-1 -1 $4 $-1 $0 2 1 1 1 1 1 1 1 1 1 1 1 1 1 0 1 1 1 @15 PersistentGfxID 0 #
lump $5 -1 -1 $-1 $-1 $6 $0 F #
transform $-1 -1 1 0 0 0 1 0 0 0 1 -50 0 0 1 no_rotate no_reflect no_shear #
render-rbase-attrib $-1 -1 $7 $1 $0 1 1 1 1 1 1 1 1 1 1 1 1 0 1 0 1 1 1 $8 $-1 0 0 #
ref_vt-eye-attrib $-1 -1 $-1 $-1 $2 1 1 1 1 1 1 1 1 1 1 1 1 1 1 0 1 1 1 $9 $-1 #
shell $10 -1 -1 $-1 $-1 $-1 $11 $-1 $2 F #
ref_vt-eye-attrib $-1 -1 $-1 $4 $0 1 1 1 1 1 1 1 1 1 1 1 1 1 1 0 1 1 1 $9 $-1 #
rh_material-rh_entity $-1 -1 4 5 @5 plain @5 color -4 0.94117647409439087 0.67450982332229614 0.11764705926179886 @5 phong @14 ambient factor -2 1 @14 diffuse factor -2 0.66600000858306885 @15 specular factor -2 0.375 @8 exponent -2 30 @14 specular color -4 1 1 1 @4 none @5 plain @5 color -4 1 1 1 #
eye_refinement $-1 -1 @5 grid  3 @3 tri 1 @4 surf 0 @3 adj 0 @4 grad 0 @9 postcheck 0 @4 stol 10 @4 ntol 22.499999999999993 @4 dsil 0 @8 flatness 0 @7 pixarea 0 @4 hmax 0 @6 gridar 0 @5 mgrid 512 @5 ugrid 0 @5 vgrid 0 @10 end_fields #
ref_vt-eye-attrib $-1 -1 $-1 $-1 $6 1 1 1 1 1 1 1 1 1 1 1 1 1 1 0 1 1 1 $9 $-1 #
face $12 -1 -1 $-1 $13 $14 $6 $-1 $15 forward single T -337.50000000000011 -337.5 0 337.49999999999994 337.50000000000023 0 F #
integer_attrib-name_attrib-gen-attrib $-1 -1 $16 $-1 $11 2 1 1 1 1 1 1 1 1 1 1 1 1 1 0 1 1 1 @15 PersistentGfxID 1 #
face $17 -1 -1 $-1 $18 $19 $6 $-1 $20 reversed single T 337.49999999999989 -337.5 0 337.49999999999994 337.5 40.5 F #
loop $-1 -1 -1 $-1 $-1 $21 $11 T -337.50000000000011 -337.5 0 337.49999999999994 337.50000000000023 0 unknown #
plane-surface $-1 -1 -1 $-1 337.49999999999994 337.5 0 0 0 -1 1350 -2.2482016248659412e-013 0 forward_v I I I I #
ref_vt-eye-attrib $-1 -1 $-1 $12 $11 1 1 1 1 1 1 1 1 1 1 1 1 1 1 0 1 1 1 $9 $-1 #
integer_attrib-name_attrib-gen-attrib $-1 -1 $22 $-1 $13 2 1 1 1 1 1 1 1 1 1 1 1 1 1 0 1 1 1 @15 PersistentGfxID 2 #
face $23 -1 -1 $-1 $24 $25 $6 $-1 $26 reversed single T -337.50000000000011 -337.5 0 337.49999999999989 -337.49999999999977 40.5 F #
loop $-1 -1 -1 $-1 $-1 $27 $13 T 337.49999999999989 -337.5 0 337.49999999999994 337.5 40.5 unknown #
plane-surface $-1 -1 -1 $-1 337.49999999999994 337.5 0 -1 1.1102230246251558e-016 0 1.4988010832439603e-013 1350 0 forward_v I I I I #
coedge $-1 -1 -1 $-1 $28 $29 $30 $31 forward $14 $-1 #
ref_vt-eye-attrib $-1 -1 $-1 $17 $13 1 1 1 1 1 1 1 1 1 1 1 1 1 1 0 1 1 1 $9 $-1 #
integer_attrib-name_attrib-gen-attrib $-1 -1 $32 $-1 $18 2 1 1 1 1 1 1 1 1 1 1 1 1 1 0 1 1 1 @15 PersistentGfxID 3 #
face $33 -1 -1 $-1 $34 $35 $6 $-1 $36 reversed single T -337.50000000000011 -337.49999999999983 0 -337.49999999999994 337.50000000000023 40.5 F #
loop $-1 -1 -1 $-1 $-1 $37 $18 T -337.50000000000011 -337.5 0 337.49999999999989 -337.49999999999977 40.5 unknown #
plane-surface $-1 -1 -1 $-1 337.49999999999989 -337.5 0 3.3306690738754696e-016 1 0 1350 -4.4964032497318845e-013 0 forward_v I I I I #
coedge $-1 -1 -1 $-1 $38 $39 $40 $41 forward $19 $-1 #
coedge $-1 -1 -1 $-1 $42 $21 $43 $44 forward $14 $-1 #
coedge $-1 -1 -1 $-1 $21 $42 $45 $46 forward $14 $-1 #
coedge $-1 -1 -1 $-1 $39 $38 $21 $31 reversed $19 $-1 #
edge $-1 -1 -1 $-1 $47 0 $48 0.5 $21 $49 forward @7 unknown T 337.49999999999989 -337.5 0 337.49999999999994 337.5 0 #
ref_vt-eye-attrib $-1 -1 $-1 $23 $18 1 1 1 1 1 1 1 1 1 1 1 1 1 1 0 1 1 1 $9 $-1 #
integer_attrib-name_attrib-gen-attrib $-1 -1 $50 $-1 $24 2 1 1 1 1 1 1 1 1 1 1 1 1 1 0 1 1 1 @15 PersistentGfxID 4 #
face $51 -1 -1 $-1 $52 $53 $6 $-1 $54 reversed single T -337.49999999999994 337.5 0 337.49999999999994 337.50000000000023 40.5 F #
loop $-1 -1 -1 $-1 $-1 $55 $24 T -337.50000000000011 -337.49999999999983 0 -337.49999999999994 337.50000000000023 40.5 unknown #
plane-surface $-1 -1 -1 $-1 -337.49999999999994 337.50000000000023 0 1 -1.6653345369377341e-016 0 0 0 1350 forward_v I I I I #
coedge $-1 -1 -1 $-1 $56 $57 $58 $59 forward $25 $-1 #
coedge $-1 -1 -1 $-1 $30 $27 $57 $60 reversed $19 $-1 #
coedge $-1 -1 -1 $-1 $27 $30 $61 $62 forward $19 $-1 #
coedge $-1 -1 -1 $-1 $63 $58 $27 $41 reversed $64 $-1 #
edge $-1 -1 -1 $-1 $65 0 $66 0.5 $27 $67 forward @7 unknown T 337.49999999999989 -337.5 40.5 337.49999999999994 337.5 40.5 #
coedge $-1 -1 -1 $-1 $29 $28 $68 $69 forward $14 $-1 #
coedge $-1 -1 -1 $-1 $57 $56 $28 $44 reversed $25 $-1 #
edge $-1 -1 -1 $-1 $48 0 $70 0.5 $28 $71 forward @7 unknown T -337.50000000000011 -337.5 0 337.49999999999989 -337.49999999999977 0 #
coedge $-1 -1 -1 $-1 $72 $61 $29 $46 reversed $53 $-1 #
edge $-1 -1 -1 $-1 $73 -0.49999999999999989 $47 0 $29 $74 forward @7 unknown T -337.49999999999994 337.5 0 337.49999999999994 337.50000000000023 0 #
vertex $-1 -1 -1 $-1 $46 $75 #
vertex $-1 -1 -1 $-1 $60 $76 #
straight-curve $-1 -1 -1 $-1 337.49999999999994 337.5 0 -1.4988010832439603e-013 -1350 0 I I #
ref_vt-eye-attrib $-1 -1 $-1 $33 $24 1 1 1 1 1 1 1 1 1 1 1 1 1 1 0 1 1 1 $9 $-1 #
integer_attrib-name_attrib-gen-attrib $-1 -1 $77 $-1 $34 2 1 1 1 1 1 1 1 1 1 1 1 1 1 0 1 1 1 @15 PersistentGfxID 5 #
face $78 -1 -1 $-1 $79 $64 $6 $-1 $80 reversed single T -337.50000000000011 -337.5 40.5 337.49999999999994 337.50000000000023 40.5 F #
loop $-1 -1 -1 $-1 $-1 $81 $34 T -337.49999999999994 337.5 0 337.49999999999994 337.50000000000023 40.5 unknown #
plane-surface $-1 -1 -1 $-1 337.49999999999994 337.5 0 -2.7755575615628909e-016 -1 0 -1350 3.7470027081099028e-013 0 forward_v I I I I #
coedge $-1 -1 -1 $-1 $82 $83 $84 $85 forward $35 $-1 #
coedge $-1 -1 -1 $-1 $43 $37 $83 $86 reversed $25 $-1 #
coedge $-1 -1 -1 $-1 $37 $43 $38 $60 forward $25 $-1 #
coedge $-1 -1 -1 $-1 $40 $84 $37 $59 reversed $64 $-1 #
edge $-1 -1 -1 $-1 $66 0 $87 0.5 $37 $88 forward @7 unknown T -337.50000000000011 -337.5 40.5 337.49999999999989 -337.49999999999977 40.5 #
edge $-1 -1 -1 $-1 $48 0 $66 0.029999999999999999 $57 $89 forward @7 unknown T 337.49999999999989 -337.5 0 337.49999999999989 -337.5 40.5 #
coedge $-1 -1 -1 $-1 $45 $81 $39 $62 reversed $53 $-1 #
edge $-1 -1 -1 $-1 $47 0 $65 0.029999999999999999 $39 $90 forward @7 unknown T 337.49999999999994 337.5 0 337.49999999999994 337.5 40.5 #
coedge $-1 -1 -1 $-1 $84 $40 $81 $91 reversed $64 $-1 #
loop $-1 -1 -1 $-1 $92 $40 $52 T -337.50000000000011 -337.5 40.5 337.49999999999994 337.50000000000023 40.5 unknown #
vertex $-1 -1 -1 $-1 $62 $93 #
vertex $-1 -1 -1 $-1 $60 $94 #
straight-curve $-1 -1 -1 $-1 337.49999999999994 337.5 40.5 -1.4988010832439603e-013 -1350 0 I I #
coedge $-1 -1 -1 $-1 $83 $82 $42 $69 reversed $35 $-1 #
edge $-1 -1 -1 $-1 $70 -0.5 $73 0 $42 $95 forward @7 unknown T -337.50000000000011 -337.49999999999983 0 -337.49999999999994 337.50000000000023 0 #
vertex $-1 -1 -1 $-1 $69 $96 #
straight-curve $-1 -1 -1 $-1 337.49999999999989 -337.5 0 -1350 4.4964032497318845e-013 0 I I #
coedge $-1 -1 -1 $-1 $81 $45 $82 $97 forward $53 $-1 #
vertex $-1 -1 -1 $-1 $46 $98 #
straight-curve $-1 -1 -1 $-1 337.49999999999994 337.5 0 1350 -3.7470027081099028e-013 0 I I #
point $-1 -1 -1 $-1 337.49999999999994 337.5 0 #
point $-1 -1 -1 $-1 337.49999999999989 -337.5 0 #
ref_vt-eye-attrib $-1 -1 $-1 $51 $34 1 1 1 1 1 1 1 1 1 1 1 1 1 1 0 1 1 1 $9 $-1 #
integer_attrib-name_attrib-gen-attrib $-1 -1 $99 $-1 $52 2 1 1 1 1 1 1 1 1 1 1 1 1 1 0 1 1 1 @15 PersistentGfxID 6 #
face $100 -1 -1 $-1 $101 $102 $6 $-1 $103 forward single F F #
plane-surface $-1 -1 -1 $-1 337.49999999999994 337.5 40.5 0 0 -1 1350 -2.2482016248659412e-013 0 forward_v I I I I #
coedge $-1 -1 -1 $-1 $61 $72 $63 $91 forward $53 $-1 #
coedge $-1 -1 -1 $-1 $68 $55 $72 $97 reversed $35 $-1 #
coedge $-1 -1 -1 $-1 $55 $68 $56 $86 forward $35 $-1 #
coedge $-1 -1 -1 $-1 $58 $63 $55 $85 reversed $64 $-1 #
edge $-1 -1 -1 $-1 $87 -0.5 $104 0 $55 $105 forward @7 unknown T -337.50000000000011 -337.49999999999983 40.5 -337.49999999999994 337.50000000000023 40.5 #
edge $-1 -1 -1 $-1 $70 0 $87 0.029999999999999999 $83 $106 forward @7 unknown T -337.50000000000011 -337.49999999999983 0 -337.50000000000011 -337.49999999999983 40.5 #
vertex $-1 -1 -1 $-1 $59 $107 #
straight-curve $-1 -1 -1 $-1 337.49999999999989 -337.5 40.5 -1350 4.4964032497318845e-013 0 I I #
straight-curve $-1 -1 -1 $-1 337.49999999999989 -337.5 0 0 0 1350 I I #
straight-curve $-1 -1 -1 $-1 337.49999999999994 337.5 0 0 0 1350 I I #
edge $-1 -1 -1 $-1 $104 -0.49999999999999989 $65 0 $81 $108 forward @7 unknown T -337.49999999999994 337.5 40.5 337.49999999999994 337.50000000000023 40.5 #
loop $-1 -1 -1 $-1 $-1 $109 $52 T -185.625 -185.625 40.5 185.625 185.625 40.5 unknown #
point $-1 -1 -1 $-1 337.49999999999994 337.5 40.5 #
point $-1 -1 -1 $-1 337.49999999999989 -337.5 40.5 #
straight-curve $-1 -1 -1 $-1 -337.49999999999994 337.50000000000023 0 2.2482016248659412e-013 1350 0 I I #
point $-1 -1 -1 $-1 -337.50000000000011 -337.49999999999983 0 #
edge $-1 -1 -1 $-1 $73 0 $104 0.029999999999999999 $72 $110 forward @7 unknown T -337.49999999999994 337.50000000000023 0 -337.49999999999994 337.50000000000023 40.5 #
point $-1 -1 -1 $-1 -337.49999999999994 337.50000000000023 0 #
ref_vt-eye-attrib $-1 -1 $-1 $78 $52 1 1 1 1 1 1 1 1 1 1 1 1 1 1 0 1 1 1 $9 $-1 #
integer_attrib-name_attrib-gen-attrib $-1 -1 $111 $-1 $79 2 1 1 1 1 1 1 1 1 1 1 1 1 1 0 1 1 1 @15 PersistentGfxID 7 #
face $112 -1 -1 $-1 $113 $114 $6 $-1 $115 forward single F F #
loop $-1 -1 -1 $-1 $-1 $116 $79 F unknown #
cone-surface $-1 -1 -1 $-1 0 0 40.5 0 0 1 -185.625 3.0912772341906696e-014 0 1 I I 0 1 1350 forward I I I I #
vertex $-1 -1 -1 $-1 $97 $117 #
straight-curve $-1 -1 -1 $-1 -337.49999999999994 337.50000000000023 40.5 2.2482016248659412e-013 1350 0 I I #
straight-curve $-1 -1 -1 $-1 -337.50000000000011 -337.49999999999983 0 0 0 1350 I I #
point $-1 -1 -1 $-1 -337.50000000000011 -337.49999999999983 40.5 #
straight-curve $-1 -1 -1 $-1 337.49999999999994 337.5 40.5 1350 -3.7470027081099028e-013 0 I I #
coedge $-1 -1 -1 $-1 $118 $118 $119 $120 forward $92 $-1 #
straight-curve $-1 -1 -1 $-1 -337.49999999999994 337.50000000000023 0 0 0 1350 I I #
ref_vt-eye-attrib $-1 -1 $-1 $100 $79 1 1 1 1 1 1 1 1 1 1 1 1 1 1 0 1 1 1 $9 $-1 #
integer_attrib-name_attrib-gen-attrib $-1 -1 $121 $-1 $101 2 1 1 1 1 1 1 1 1 1 1 1 1 1 0 1 1 1 @15 PersistentGfxID 8 #
face $122 -1 -1 $-1 $123 $124 $6 $-1 $125 forward single T -317.25000000000006 -283.50000000000011 259.5 337.50000000000006 283.50000000000017 259.5 F #
loop $-1 -1 -1 $-1 $-1 $126 $101 F unknown #
cone-surface $-1 -1 -1 $-1 0 0 40.5 0 0 1 -185.625 3.0912772341906696e-014 0 1 I I 0 1 1350 forward I I I I #
coedge $-1 -1 -1 $-1 $127 $128 $129 $130 reversed $102 $-1 #
point $-1 -1 -1 $-1 -337.49999999999994 337.50000000000023 40.5 #
coedge $-1 -1 -1 $-1 $109 $109 $131 $132 forward $92 $-1 #
coedge $-1 -1 -1 $-1 $128 $127 $109 $120 reversed $102 $-1 #
edge $-1 -1 -1 $-1 $133 -3.1415926535897931 $134 1.2246063538223768e-016 $109 $135 forward @7 unknown T -185.625 -5.3644527784734568e-014 40.5 185.625 185.625 40.5 #
ref_vt-eye-attrib $-1 -1 $-1 $112 $101 1 1 1 1 1 1 1 1 1 1 1 1 1 1 0 1 1 1 $9 $-1 #
integer_attrib-name_attrib-gen-attrib $-1 -1 $136 $-1 $113 2 1 1 1 1 1 1 1 1 1 1 1 1 1 0 1 1 1 @15 PersistentGfxID 9 #
face $137 -1 -1 $-1 $138 $139 $6 $-1 $140 reversed single T 337.49999999999989 -148.50000000000159 259.5 337.5 148.50000000000153 300 F #
loop $-1 -1 -1 $-1 $141 $129 $113 T -185.625 -185.625 259.5 185.625 185.625 259.5 unknown #
plane-surface $-1 -1 -1 $-1 -317.25000000000006 -283.5 259.5 0 0 -1 1350 -2.2482016248659412e-013 0 forward_v I I I I #
coedge $-1 -1 -1 $-1 $142 $143 $144 $145 reversed $114 $-1 #
coedge $-1 -1 -1 $-1 $119 $116 $143 $146 reversed $102 $-1 #
coedge $-1 -1 -1 $-1 $116 $119 $142 $147 forward $102 $-1 #
coedge $-1 -1 -1 $-1 $144 $144 $116 $130 forward $124 $-1 #
edge $-1 -1 -1 $-1 $148 -3.1415926535897931 $149 0 $129 $150 forward @7 unknown T -185.625 -5.3644527784734568e-014 259.5 185.625 185.625 259.5 #
coedge $-1 -1 -1 $-1 $143 $142 $118 $132 reversed $114 $-1 #
edge $-1 -1 -1 $-1 $134 1.2246063538223768e-016 $133 3.1415926535897931 $118 $151 forward @7 unknown T -185.625 -185.625 40.5 185.625 3.0912772341906696e-014 40.5 #
vertex $-1 -1 -1 $-1 $120 $152 #
vertex $-1 -1 -1 $-1 $146 $153 #
ellipse-curve $-1 -1 -1 $-1 0 0 40.5 0 0 -1 185.625 -3.0912772341906696e-014 0 1 I I #
ref_vt-eye-attrib $-1 -1 $-1 $122 $113 1 1 1 1 1 1 1 1 1 1 1 1 1 1 0 1 1 1 $9 $-1 #
integer_attrib-name_attrib-gen-attrib $-1 -1 $154 $-1 $123 2 1 1 1 1 1 1 1 1 1 1 1 1 1 0 1 1 1 @15 PersistentGfxID 10 #
face $155 -1 -1 $-1 $156 $157 $6 $-1 $158 reversed single T 202.49999999999994 -283.50000000000011 259.5 337.5 -148.50000000000159 300 F #
loop $-1 -1 -1 $-1 $-1 $159 $123 T 337.49999999999989 -148.50000000000159 259.5 337.5 148.50000000000153 300 unknown #
plane-surface $-1 -1 -1 $-1 337.5 148.50000000000153 259.5 -1 1.6653345369377341e-016 0 0 0 -1350 forward_v I I I I #
loop $-1 -1 -1 $-1 $160 $161 $113 T -29.025000000000148 -251.77500000000003 259.5 -11.475000000000135 -234.22500000000002 259.5 unknown #
coedge $-1 -1 -1 $-1 $131 $126 $128 $147 reversed $114 $-1 #
coedge $-1 -1 -1 $-1 $126 $131 $127 $146 forward $114 $-1 #
coedge $-1 -1 -1 $-1 $129 $129 $126 $145 forward $124 $-1 #
edge $-1 -1 -1 $-1 $149 0 $148 3.1415926535897931 $144 $162 forward @7 unknown T -185.625 -185.625 259.5 185.625 3.0912772341906696e-014 259.5 #
edge $-1 -1 -1 $-1 $134 0 $148 0.16222222222222227 $143 $163 forward @7 tangent F #
edge $-1 -1 -1 $-1 $133 0 $149 0.16222222222222227 $128 $164 forward @7 tangent F #
vertex $-1 -1 -1 $-1 $130 $165 #
vertex $-1 -1 -1 $-1 $130 $166 #
ellipse-curve $-1 -1 -1 $-1 0 0 259.5 0 0 1 -185.625 3.0912772341906696e-014 0 1 I I #
ellipse-curve $-1 -1 -1 $-1 0 0 40.5 0 0 -1 185.625 -3.0912772341906696e-014 0 1 I I #
point $-1 -1 -1 $-1 -185.625 3.0912772341906696e-014 40.5 #
point $-1 -1 -1 $-1 185.625 -5.3644527784734568e-014 40.5 #
ref_vt-eye-attrib $-1 -1 $-1 $137 $123 1 1 1 1 1 1 1 1 1 1 1 1 1 1 0 1 1 1 $9 $-1 #
integer_attrib-name_attrib-gen-attrib $-1 -1 $167 $-1 $138 2 1 1 1 1 1 1 1 1 1 1 1 1 1 0 1 1 1 @15 PersistentGfxID 11 #
face $168 -1 -1 $-1 $169 $170 $6 $-1 $171 reversed single F F #
loop $-1 -1 -1 $-1 $-1 $172 $138 T 202.49999999999994 -283.50000000000011 259.5 337.5 -148.50000000000159 300 unknown #
plane-surface $-1 -1 -1 $-1 202.49999999999994 -283.50000000000011 259.5 -0.70710678118654358 0.70710678118655157 0 954.59415460184459 954.59415460183391 0 forward_v I I I I #
coedge $-1 -1 -1 $-1 $173 $174 $175 $176 forward $139 $-1 #
loop $-1 -1 -1 $-1 $177 $178 $113 T 288.22499999999991 -8.775000000000043 259.5 305.77499999999998 8.7749999999999719 259.5 unknown #
coedge $-1 -1 -1 $-1 $179 $179 $180 $181 reversed $141 $-1 #
ellipse-curve $-1 -1 -1 $-1 0 0 259.5 0 0 1 -185.625 3.0912772341906696e-014 0 1 I I #
straight-curve $-1 -1 -1 $-1 185.625 -5.3644527784734568e-014 40.5 0 0 1350 I I #
straight-curve $-1 -1 -1 $-1 -185.625 3.0912772341906696e-014 40.5 0 0 1350 I I #
point $-1 -1 -1 $-1 185.625 -5.3644527784734568e-014 259.5 #
point $-1 -1 -1 $-1 -185.625 3.0912772341906696e-014 259.5 #
ref_vt-eye-attrib $-1 -1 $-1 $155 $138 1 1 1 1 1 1 1 1 1 1 1 1 1 1 0 1 1 1 $9 $-1 #
integer_attrib-name_attrib-gen-attrib $-1 -1 $182 $-1 $156 2 1 1 1 1 1 1 1 1 1 1 1 1 1 0 1 1 1 @15 PersistentGfxID 12 #
face $183 -1 -1 $-1 $184 $185 $6 $-1 $186 reversed single F F #
loop $-1 -1 -1 $-1 $-1 $187 $156 F unknown #
cone-surface $-1 -1 -1 $-1 296.99999999999994 -3.4847125185422088e-014 259.5 0 0 1 -8.7750000000000075 1.4613310561628632e-015 0 1 I I 0 1 1350 forward I I I I #
coedge $-1 -1 -1 $-1 $188 $189 $190 $191 forward $157 $-1 #
coedge $-1 -1 -1 $-1 $192 $159 $189 $193 reversed $139 $-1 #
coedge $-1 -1 -1 $-1 $159 $192 $194 $195 forward $139 $-1 #
coedge $-1 -1 -1 $-1 $196 $190 $159 $176 reversed $197 $-1 #
edge $-1 -1 -1 $-1 $198 0 $199 0.2200000000000023 $159 $200 forward @7 unknown T 337.49999999999989 -148.50000000000159 300 337.5 148.50000000000153 300 #
loop $-1 -1 -1 $-1 $201 $202 $113 T -29.025000000000006 234.22500000000002 259.5 -11.474999999999978 251.77500000000003 259.5 unknown #
coedge $-1 -1 -1 $-1 $203 $203 $204 $205 reversed $160 $-1 #
coedge $-1 -1 -1 $-1 $161 $161 $206 $207 reversed $141 $-1 #
coedge $-1 -1 -1 $-1 $208 $209 $161 $181 forward $185 $-1 #
edge $-1 -1 -1 $-1 $210 -3.1415926535897887 $211 -1.6653345369377343e-016 $180 $212 forward @7 unknown T -29.025000000000148 -243.00000000000003 259.5 -11.475000000000135 -234.22500000000002 259.5 #
ref_vt-eye-attrib $-1 -1 $-1 $168 $156 1 1 1 1 1 1 1 1 1 1 1 1 1 1 0 1 1 1 $9 $-1 #
integer_attrib-name_attrib-gen-attrib $-1 -1 $213 $-1 $169 2 1 1 1 1 1 1 1 1 1 1 1 1 1 0 1 1 1 @15 PersistentGfxID 13 #
face $214 -1 -1 $-1 $215 $216 $6 $-1 $217 reversed single F F #
loop $-1 -1 -1 $-1 $-1 $180 $169 F unknown #
cone-surface $-1 -1 -1 $-1 -20.250000000000142 -243.00000000000003 259.5 0 0 1 -8.7750000000000075 1.4613310561628632e-015 0 1 I I 0 1 1350 forward I I I I #
coedge $-1 -1 -1 $-1 $218 $219 $220 $221 reversed $170 $-1 #
coedge $-1 -1 -1 $-1 $222 $172 $223 $224 reversed $157 $-1 #
coedge $-1 -1 -1 $-1 $172 $222 $173 $193 forward $157 $-1 #
coedge $-1 -1 -1 $-1 $175 $225 $172 $191 reversed $197 $-1 #
edge $-1 -1 -1 $-1 $199 -0.14142135623730873 $226 0 $172 $227 forward @7 unknown T 202.49999999999994 -283.50000000000011 300 337.5 -148.50000000000159 300 #
coedge $-1 -1 -1 $-1 $174 $173 $228 $229 reversed $139 $-1 #
edge $-1 -1 -1 $-1 $230 0 $199 0.029999999999999999 $189 $231 forward @7 unknown T 337.49999999999989 -148.50000000000159 259.5 337.49999999999989 -148.50000000000159 300 #
coedge $-1 -1 -1 $-1 $232 $233 $174 $195 reversed $234 $-1 #
edge $-1 -1 -1 $-1 $235 0 $198 0.029999999999999999 $174 $236 forward @7 unknown T 337.5 148.50000000000153 259.5 337.5 148.50000000000153 300 #
coedge $-1 -1 -1 $-1 $237 $175 $233 $238 reversed $197 $-1 #
loop $-1 -1 -1 $-1 $239 $240 $241 T -317.25000000000006 -283.50000000000011 300 337.50000000000006 283.50000000000017 300 unknown #
vertex $-1 -1 -1 $-1 $176 $242 #
vertex $-1 -1 -1 $-1 $193 $243 #
straight-curve $-1 -1 -1 $-1 337.5 148.50000000000153 300 -2.2482016248659412e-013 -1350 0 I I #
loop $-1 -1 -1 $-1 $-1 $244 $113 T -317.25000000000006 -283.50000000000011 259.5 337.50000000000006 283.50000000000017 259.5 unknown #
coedge $-1 -1 -1 $-1 $245 $245 $246 $247 reversed $177 $-1 #
coedge $-1 -1 -1 $-1 $178 $178 $218 $248 reversed $160 $-1 #
coedge $-1 -1 -1 $-1 $220 $249 $178 $205 forward $216 $-1 #
edge $-1 -1 -1 $-1 $250 -3.1415926535897931 $251 1.2246063538223822e-016 $204 $252 forward @7 unknown T 288.22499999999991 -3.7383048317064094e-014 259.5 305.77499999999998 8.7749999999999719 259.5 #
coedge $-1 -1 -1 $-1 $253 $254 $179 $207 forward $255 $-1 #
edge $-1 -1 -1 $-1 $211 -1.6653345369377343e-016 $210 3.1415926535897976 $206 $256 forward @7 unknown T -29.025000000000148 -251.77500000000003 259.5 -11.475000000000135 -242.99999999999997 259.5 #
coedge $-1 -1 -1 $-1 $257 $180 $254 $258 forward $185 $-1 #
coedge $-1 -1 -1 $-1 $180 $257 $253 $259 reversed $185 $-1 #
vertex $-1 -1 -1 $-1 $181 $260 #
vertex $-1 -1 -1 $-1 $181 $261 #
ellipse-curve $-1 -1 -1 $-1 -20.250000000000142 -243.00000000000003 259.5 0 0 -1 8.7750000000000075 -1.4613310561628632e-015 0 1 I I #
ref_vt-eye-attrib $-1 -1 $-1 $183 $169 1 1 1 1 1 1 1 1 1 1 1 1 1 1 0 1 1 1 $9 $-1 #
integer_attrib-name_attrib-gen-attrib $-1 -1 $262 $-1 $184 2 1 1 1 1 1 1 1 1 1 1 1 1 1 0 1 1 1 @15 PersistentGfxID 14 #
face $263 -1 -1 $-1 $264 $265 $6 $-1 $266 reversed single F F #
loop $-1 -1 -1 $-1 $-1 $204 $184 F unknown #
cone-surface $-1 -1 -1 $-1 296.99999999999994 -3.4847125185422088e-014 259.5 0 0 1 -8.7750000000000075 1.4613310561628632e-015 0 1 I I 0 1 1350 forward I I I I #
coedge $-1 -1 -1 $-1 $267 $187 $203 $248 forward $170 $-1 #
coedge $-1 -1 -1 $-1 $187 $267 $268 $269 reversed $170 $-1 #
coedge $-1 -1 -1 $-1 $270 $204 $187 $221 forward $216 $-1 #
edge $-1 -1 -1 $-1 $251 0 $271 0.029999999999999999 $220 $272 forward @7 tangent F #
coedge $-1 -1 -1 $-1 $189 $188 $273 $274 reversed $157 $-1 #
coedge $-1 -1 -1 $-1 $275 $276 $188 $224 forward $277 $-1 #
edge $-1 -1 -1 $-1 $278 0 $226 0.029999999999999999 $223 $279 forward @7 unknown T 202.49999999999994 -283.50000000000011 259.5 202.49999999999994 -283.50000000000011 300 #
coedge $-1 -1 -1 $-1 $190 $240 $275 $280 reversed $197 $-1 #
vertex $-1 -1 -1 $-1 $280 $281 #
straight-curve $-1 -1 -1 $-1 202.49999999999994 -283.50000000000011 300 -954.59415460184459 -954.59415460183379 0 I I #
coedge $-1 -1 -1 $-1 $273 $282 $192 $229 forward $201 $-1 #
edge $-1 -1 -1 $-1 $235 0 $230 0.2200000000000023 $228 $283 forward @7 unknown T 337.49999999999989 -148.50000000000159 259.5 337.5 148.50000000000153 259.5 #
vertex $-1 -1 -1 $-1 $193 $284 #
straight-curve $-1 -1 -1 $-1 337.49999999999989 -148.50000000000159 259.5 0 0 1350 I I #
coedge $-1 -1 -1 $-1 $285 $194 $282 $286 reversed $234 $-1 #
coedge $-1 -1 -1 $-1 $194 $285 $196 $238 forward $234 $-1 #
loop $-1 -1 -1 $-1 $-1 $233 $287 T 202.50000000000006 148.50000000000142 259.5 337.50000000000006 283.5 300 unknown #
vertex $-1 -1 -1 $-1 $229 $288 #
straight-curve $-1 -1 -1 $-1 337.5 148.50000000000153 259.5 0 0 1350 I I #
coedge $-1 -1 -1 $-1 $240 $196 $289 $290 reversed $197 $-1 #
edge $-1 -1 -1 $-1 $291 0 $198 0.14142135623730873 $233 $292 forward @7 unknown T 202.50000000000006 148.50000000000142 300 337.50000000000006 283.5 300 #
loop $-1 -1 -1 $-1 $293 $294 $241 T 288.22499999999991 -8.775000000000043 300 305.77499999999998 8.7749999999999719 300 unknown #
coedge $-1 -1 -1 $-1 $225 $237 $295 $296 reversed $197 $-1 #
face $297 -1 -1 $-1 $-1 $298 $6 $-1 $299 reversed single T -317.25000000000006 -283.50000000000011 300 337.50000000000006 283.50000000000017 300 F #
point $-1 -1 -1 $-1 337.5 148.50000000000153 300 #
point $-1 -1 -1 $-1 337.49999999999989 -148.50000000000159 300 #
coedge $-1 -1 -1 $-1 $300 $273 $276 $301 forward $201 $-1 #
coedge $-1 -1 -1 $-1 $202 $202 $302 $303 reversed $177 $-1 #
coedge $-1 -1 -1 $-1 $304 $305 $202 $247 forward $306 $-1 #
edge $-1 -1 -1 $-1 $307 -3.1415926535897887 $308 -1.6653345369377343e-016 $246 $309 forward @7 unknown T -29.025000000000006 243.00000000000003 259.5 -11.474999999999978 251.77500000000003 259.5 #
edge $-1 -1 -1 $-1 $251 1.2246063538223822e-016 $250 3.1415926535897931 $218 $310 forward @7 unknown T 288.22499999999991 -8.775000000000043 259.5 305.77499999999998 -3.3385794129259223e-014 259.5 #
coedge $-1 -1 -1 $-1 $204 $270 $267 $311 reversed $216 $-1 #
vertex $-1 -1 -1 $-1 $248 $312 #
vertex $-1 -1 -1 $-1 $248 $313 #
ellipse-curve $-1 -1 -1 $-1 296.99999999999994 -3.4847125185422088e-014 259.5 0 0 -1 8.7750000000000075 -1.4613310561628632e-015 0 1 I I #
coedge $-1 -1 -1 $-1 $314 $206 $209 $259 forward $255 $-1 #
coedge $-1 -1 -1 $-1 $206 $314 $208 $258 reversed $255 $-1 #
loop $-1 -1 -1 $-1 $-1 $254 $315 F unknown #
ellipse-curve $-1 -1 -1 $-1 -20.250000000000142 -243.00000000000003 259.5 0 0 -1 8.7750000000000075 -1.4613310561628632e-015 0 1 I I #
coedge $-1 -1 -1 $-1 $209 $208 $316 $317 reversed $185 $-1 #
edge $-1 -1 -1 $-1 $211 0 $318 0.029999999999999999 $208 $319 forward @7 tangent F #
edge $-1 -1 -1 $-1 $210 0 $320 0.029999999999999999 $253 $321 forward @7 tangent F #
point $-1 -1 -1 $-1 -29.025000000000148 -242.99999999999997 259.5 #
point $-1 -1 -1 $-1 -11.475000000000136 -243.00000000000003 259.5 #
ref_vt-eye-attrib $-1 -1 $-1 $214 $184 1 1 1 1 1 1 1 1 1 1 1 1 1 1 0 1 1 1 $9 $-1 #
integer_attrib-name_attrib-gen-attrib $-1 -1 $322 $-1 $215 2 1 1 1 1 1 1 1 1 1 1 1 1 1 0 1 1 1 @15 PersistentGfxID 15 #
face $323 -1 -1 $-1 $324 $306 $6 $-1 $325 reversed single F F #
loop $-1 -1 -1 $-1 $-1 $326 $215 F unknown #
cone-surface $-1 -1 -1 $-1 -20.249999999999986 243.00000000000003 259.5 0 0 1 -8.7750000000000075 1.4613310561628632e-015 0 1 I I 0 1 1350 forward I I I I #
coedge $-1 -1 -1 $-1 $219 $218 $249 $311 forward $170 $-1 #
coedge $-1 -1 -1 $-1 $294 $294 $219 $269 forward $239 $-1 #
edge $-1 -1 -1 $-1 $271 1.2246063538223822e-016 $327 3.1415926535897931 $268 $328 forward @7 unknown T 288.22499999999991 -8.775000000000043 300 305.77499999999998 -3.3385794129259223e-014 300 #
coedge $-1 -1 -1 $-1 $249 $220 $294 $329 reversed $216 $-1 #
vertex $-1 -1 -1 $-1 $269 $330 #
straight-curve $-1 -1 -1 $-1 305.77499999999998 -3.7383048317064088e-014 259.5 0 0 1350 I I #
coedge $-1 -1 -1 $-1 $244 $228 $222 $274 forward $201 $-1 #
edge $-1 -1 -1 $-1 $230 -0.14142135623730873 $278 0 $273 $331 forward @7 unknown T 202.49999999999994 -283.50000000000011 259.5 337.5 -148.50000000000159 259.5 #
coedge $-1 -1 -1 $-1 $332 $223 $225 $280 forward $277 $-1 #
coedge $-1 -1 -1 $-1 $223 $332 $244 $301 reversed $277 $-1 #
loop $-1 -1 -1 $-1 $-1 $275 $324 T -317.25000000000006 -283.50000000000011 259.5 202.49999999999994 -283.5 300 unknown #
vertex $-1 -1 -1 $-1 $301 $333 #
straight-curve $-1 -1 -1 $-1 202.49999999999994 -283.50000000000011 259.5 0 0 1350 I I #
edge $-1 -1 -1 $-1 $226 0 $334 0.38500000000000001 $275 $335 forward @7 unknown T -317.25000000000006 -283.50000000000011 300 202.49999999999994 -283.5 300 #
point $-1 -1 -1 $-1 202.49999999999994 -283.50000000000011 300 #
coedge $-1 -1 -1 $-1 $228 $336 $232 $286 forward $201 $-1 #
straight-curve $-1 -1 -1 $-1 337.5 148.50000000000153 259.5 -2.2482016248659412e-013 -1350 0 I I #
point $-1 -1 -1 $-1 337.49999999999989 -148.50000000000159 259.5 #
coedge $-1 -1 -1 $-1 $233 $232 $337 $338 forward $234 $-1 #
edge $-1 -1 -1 $-1 $339 0 $235 0.14142135623730873 $282 $340 forward @7 unknown T 202.50000000000006 148.50000000000142 259.5 337.50000000000006 283.5 259.5 #
face $341 -1 -1 $-1 $342 $234 $6 $-1 $343 reversed single T 202.50000000000006 148.50000000000142 259.5 337.50000000000006 283.5 300 F #
point $-1 -1 -1 $-1 337.5 148.50000000000153 259.5 #
coedge $-1 -1 -1 $-1 $337 $344 $237 $290 forward $345 $-1 #
edge $-1 -1 -1 $-1 $346 -0.38499999999999995 $291 0 $289 $347 forward @7 unknown T -317.24999999999994 283.5 300 202.50000000000006 283.50000000000017 300 #
vertex $-1 -1 -1 $-1 $290 $348 #
straight-curve $-1 -1 -1 $-1 202.50000000000006 283.5 300 954.59415460184437 -954.59415460183425 0 I I #
loop $-1 -1 -1 $-1 $-1 $316 $241 T -29.025000000000148 -251.77500000000003 300 -11.475000000000135 -234.22500000000002 300 unknown #
coedge $-1 -1 -1 $-1 $268 $268 $270 $329 forward $239 $-1 #
coedge $-1 -1 -1 $-1 $349 $350 $240 $296 forward $351 $-1 #
edge $-1 -1 -1 $-1 $334 -0.4200000000000001 $346 0 $295 $352 forward @7 unknown T -317.25000000000006 -283.5 300 -317.24999999999994 283.50000000000017 300 #
integer_attrib-name_attrib-gen-attrib $-1 -1 $353 $-1 $241 2 1 1 1 1 1 1 1 1 1 1 1 1 1 0 1 1 1 @15 PersistentGfxID 22 #
loop $-1 -1 -1 $-1 $197 $354 $241 T -29.025000000000006 234.22500000000002 300 -11.474999999999978 251.77500000000003 300 unknown #
plane-surface $-1 -1 -1 $-1 -317.25000000000006 -283.5 300 0 0 -1 1350 -2.2482016248659412e-013 0 forward_v I I I I #
coedge $-1 -1 -1 $-1 $336 $244 $355 $356 forward $201 $-1 #
edge $-1 -1 -1 $-1 $278 0 $357 0.38500000000000001 $244 $358 forward @7 unknown T -317.25000000000006 -283.50000000000011 259.5 202.49999999999994 -283.5 259.5 #
coedge $-1 -1 -1 $-1 $359 $326 $245 $303 forward $265 $-1 #
edge $-1 -1 -1 $-1 $308 -1.6653345369377343e-016 $307 3.1415926535897976 $302 $360 forward @7 unknown T -29.025000000000006 234.22500000000002 259.5 -11.474999999999978 243.00000000000006 259.5 #
coedge $-1 -1 -1 $-1 $361 $246 $326 $362 forward $306 $-1 #
coedge $-1 -1 -1 $-1 $246 $361 $359 $363 reversed $306 $-1 #
loop $-1 -1 -1 $-1 $-1 $246 $264 F unknown #
vertex $-1 -1 -1 $-1 $247 $364 #
vertex $-1 -1 -1 $-1 $247 $365 #
ellipse-curve $-1 -1 -1 $-1 -20.249999999999986 243.00000000000003 259.5 0 0 -1 8.7750000000000075 -1.4613310561628632e-015 0 1 I I #
ellipse-curve $-1 -1 -1 $-1 296.99999999999994 -3.4847125185422088e-014 259.5 0 0 -1 8.7750000000000075 -1.4613310561628632e-015 0 1 I I #
edge $-1 -1 -1 $-1 $250 0 $327 0.029999999999999999 $267 $366 forward @7 tangent F #
point $-1 -1 -1 $-1 288.22499999999997 -3.3385794129259223e-014 259.5 #
point $-1 -1 -1 $-1 305.77499999999998 -3.7383048317064088e-014 259.5 #
coedge $-1 -1 -1 $-1 $254 $253 $367 $368 reversed $255 $-1 #
face $369 -1 -1 $-1 $241 $255 $6 $-1 $370 reversed single F F #
coedge $-1 -1 -1 $-1 $367 $367 $257 $317 forward $293 $-1 #
edge $-1 -1 -1 $-1 $320 -3.1415926535897887 $318 -1.6653345369377343e-016 $316 $371 forward @7 unknown T -29.025000000000148 -243.00000000000003 300 -11.475000000000135 -234.22500000000002 300 #
vertex $-1 -1 -1 $-1 $368 $372 #
straight-curve $-1 -1 -1 $-1 -11.475000000000136 -243.00000000000003 259.5 0 0 1350 I I #
vertex $-1 -1 -1 $-1 $368 $373 #
straight-curve $-1 -1 -1 $-1 -29.025000000000148 -242.99999999999997 259.5 0 0 1350 I I #
ref_vt-eye-attrib $-1 -1 $-1 $263 $215 1 1 1 1 1 1 1 1 1 1 1 1 1 1 0 1 1 1 $9 $-1 #
integer_attrib-name_attrib-gen-attrib $-1 -1 $374 $-1 $264 2 1 1 1 1 1 1 1 1 1 1 1 1 1 0 1 1 1 @15 PersistentGfxID 16 #
face $375 -1 -1 $-1 $287 $277 $6 $-1 $376 reversed single T -317.25000000000006 -283.50000000000011 259.5 202.49999999999994 -283.5 300 F #
cone-surface $-1 -1 -1 $-1 -20.249999999999986 243.00000000000003 259.5 0 0 1 -8.7750000000000075 1.4613310561628632e-015 0 1 I I 0 1 1350 forward I I I I #
coedge $-1 -1 -1 $-1 $302 $377 $304 $362 reversed $265 $-1 #
vertex $-1 -1 -1 $-1 $311 $378 #
ellipse-curve $-1 -1 -1 $-1 296.99999999999994 -3.4847125185422088e-014 300 0 0 -1 8.7750000000000075 -1.4613310561628632e-015 0 1 I I #
edge $-1 -1 -1 $-1 $327 -3.1415926535897931 $271 1.2246063538223822e-016 $294 $379 forward @7 unknown T 288.22499999999991 -3.7383048317064094e-014 300 305.77499999999998 8.7749999999999719 300 #
point $-1 -1 -1 $-1 305.77499999999998 -3.7383048317064088e-014 300 #
straight-curve $-1 -1 -1 $-1 202.49999999999994 -283.50000000000011 259.5 -954.59415460184459 -954.59415460183379 0 I I #
coedge $-1 -1 -1 $-1 $276 $275 $350 $380 reversed $277 $-1 #
point $-1 -1 -1 $-1 202.49999999999994 -283.50000000000011 259.5 #
vertex $-1 -1 -1 $-1 $280 $381 #
straight-curve $-1 -1 -1 $-1 202.49999999999994 -283.50000000000011 300 -1350 1.2749541682140181e-013 0 I I #
coedge $-1 -1 -1 $-1 $282 $300 $382 $383 forward $201 $-1 #
coedge $-1 -1 -1 $-1 $382 $289 $285 $338 reversed $345 $-1 #
edge $-1 -1 -1 $-1 $339 0 $291 0.029999999999999999 $285 $384 forward @7 unknown T 202.50000000000006 283.5 259.5 202.50000000000006 283.5 300 #
vertex $-1 -1 -1 $-1 $383 $385 #
straight-curve $-1 -1 -1 $-1 202.50000000000006 283.5 259.5 954.59415460184437 -954.59415460183425 0 I I #
integer_attrib-name_attrib-gen-attrib $-1 -1 $386 $-1 $287 2 1 1 1 1 1 1 1 1 1 1 1 1 1 0 1 1 1 @15 PersistentGfxID 18 #
face $387 -1 -1 $-1 $388 $345 $6 $-1 $389 reversed single T -317.24999999999994 283.5 259.5 202.50000000000006 283.50000000000017 300 F #
plane-surface $-1 -1 -1 $-1 202.50000000000006 283.5 259.5 -0.7071067811865438 -0.70710678118655135 0 -954.59415460184437 954.59415460183425 0 forward_v I I I I #
coedge $-1 -1 -1 $-1 $289 $382 $349 $390 forward $345 $-1 #
loop $-1 -1 -1 $-1 $-1 $289 $342 T -317.24999999999994 283.5 259.5 202.50000000000006 283.50000000000017 300 unknown #
vertex $-1 -1 -1 $-1 $390 $391 #
straight-curve $-1 -1 -1 $-1 202.50000000000006 283.5 300 1350 -3.2214490815178651e-013 0 I I #
point $-1 -1 -1 $-1 202.50000000000006 283.5 300 #
coedge $-1 -1 -1 $-1 $355 $295 $344 $390 reversed $351 $-1 #
coedge $-1 -1 -1 $-1 $295 $355 $332 $380 forward $351 $-1 #
loop $-1 -1 -1 $-1 $-1 $295 $388 T -317.25000000000006 -283.5 259.5 -317.24999999999994 283.50000000000017 300 unknown #
straight-curve $-1 -1 -1 $-1 -317.24999999999994 283.50000000000017 300 2.2482016248659412e-013 1350 0 I I #
ref_vt-eye-attrib $-1 -1 $-1 $297 $241 1 1 1 1 1 1 1 1 1 1 1 1 1 1 0 1 1 1 $9 $-1 #
coedge $-1 -1 -1 $-1 $392 $392 $361 $393 forward $298 $-1 #
coedge $-1 -1 -1 $-1 $350 $349 $300 $356 reversed $351 $-1 #
edge $-1 -1 -1 $-1 $357 -0.4200000000000001 $394 0 $300 $395 forward @7 unknown T -317.25000000000006 -283.5 259.5 -317.24999999999994 283.50000000000017 259.5 #
vertex $-1 -1 -1 $-1 $356 $396 #
straight-curve $-1 -1 -1 $-1 202.49999999999994 -283.50000000000011 259.5 -1350 1.2749541682140181e-013 0 I I #
coedge $-1 -1 -1 $-1 $377 $302 $305 $363 forward $265 $-1 #
ellipse-curve $-1 -1 -1 $-1 -20.249999999999986 243.00000000000003 259.5 0 0 -1 8.7750000000000075 -1.4613310561628632e-015 0 1 I I #
coedge $-1 -1 -1 $-1 $305 $304 $354 $393 reversed $306 $-1 #
edge $-1 -1 -1 $-1 $308 0 $397 0.029999999999999999 $304 $398 forward @7 tangent F #
edge $-1 -1 -1 $-1 $307 0 $399 0.029999999999999999 $359 $400 forward @7 tangent F #
point $-1 -1 -1 $-1 -29.025000000000006 243.00000000000006 259.5 #
point $-1 -1 -1 $-1 -11.47499999999998 243.00000000000003 259.5 #
straight-curve $-1 -1 -1 $-1 288.22499999999997 -3.3385794129259223e-014 259.5 0 0 1350 I I #
coedge $-1 -1 -1 $-1 $316 $316 $314 $368 forward $293 $-1 #
edge $-1 -1 -1 $-1 $318 -1.6653345369377343e-016 $320 3.1415926535897976 $367 $401 forward @7 unknown T -29.025000000000148 -251.77500000000003 300 -11.475000000000135 -242.99999999999997 300 #
integer_attrib-name_attrib-gen-attrib $-1 -1 $402 $-1 $315 2 1 1 1 1 1 1 1 1 1 1 1 1 1 0 1 1 1 @15 PersistentGfxID 21 #
cone-surface $-1 -1 -1 $-1 -20.250000000000142 -243.00000000000003 259.5 0 0 1 -8.7750000000000075 1.4613310561628632e-015 0 1 I I 0 1 1350 forward I I I I #
ellipse-curve $-1 -1 -1 $-1 -20.250000000000142 -243.00000000000003 300 0 0 -1 8.7750000000000075 -1.4613310561628632e-015 0 1 I I #
point $-1 -1 -1 $-1 -11.475000000000136 -243.00000000000003 300 #
point $-1 -1 -1 $-1 -29.025000000000148 -242.99999999999997 300 #
ref_vt-eye-attrib $-1 -1 $-1 $323 $264 1 1 1 1 1 1 1 1 1 1 1 1 1 1 0 1 1 1 $9 $-1 #
integer_attrib-name_attrib-gen-attrib $-1 -1 $403 $-1 $324 2 1 1 1 1 1 1 1 1 1 1 1 1 1 0 1 1 1 @15 PersistentGfxID 17 #
plane-surface $-1 -1 -1 $-1 202.49999999999994 -283.50000000000011 259.5 9.4441049497334659e-017 1 0 1350 -1.2749541682140181e-013 0 forward_v I I I I #
coedge $-1 -1 -1 $-1 $326 $359 $392 $404 reversed $265 $-1 #
point $-1 -1 -1 $-1 288.22499999999997 -3.3385794129259223e-014 300 #
ellipse-curve $-1 -1 -1 $-1 296.99999999999994 -3.4847125185422088e-014 300 0 0 -1 8.7750000000000075 -1.4613310561628632e-015 0 1 I I #
edge $-1 -1 -1 $-1 $357 0 $334 0.029999999999999999 $350 $405 forward @7 unknown T -317.25000000000006 -283.5 259.5 -317.25000000000006 -283.5 300 #
point $-1 -1 -1 $-1 -317.25000000000006 -283.5 300 #
coedge $-1 -1 -1 $-1 $344 $337 $336 $383 reversed $345 $-1 #
edge $-1 -1 -1 $-1 $394 -0.38500000000000001 $339 0 $336 $406 forward @7 unknown T -317.24999999999994 283.5 259.5 202.50000000000006 283.50000000000017 259.5 #
straight-curve $-1 -1 -1 $-1 202.50000000000006 283.5 259.5 0 0 1350 I I #
point $-1 -1 -1 $-1 202.50000000000006 283.5 259.5 #
ref_vt-eye-attrib $-1 -1 $-1 $341 $287 1 1 1 1 1 1 1 1 1 1 1 1 1 1 0 1 1 1 $9 $-1 #
integer_attrib-name_attrib-gen-attrib $-1 -1 $407 $-1 $342 2 1 1 1 1 1 1 1 1 1 1 1 1 1 0 1 1 1 @15 PersistentGfxID 19 #
face $408 -1 -1 $-1 $315 $351 $6 $-1 $409 reversed single T -317.25000000000006 -283.5 259.5 -317.24999999999994 283.50000000000017 300 F #
plane-surface $-1 -1 -1 $-1 202.50000000000006 283.5 259.5 -2.3862585789021217e-016 -1 0 -1350 3.2214490815178646e-013 0 forward_v I I I I #
edge $-1 -1 -1 $-1 $394 0 $346 0.029999999999999999 $344 $410 forward @7 unknown T -317.24999999999994 283.50000000000017 259.5 -317.24999999999994 283.50000000000017 300 #
point $-1 -1 -1 $-1 -317.24999999999994 283.50000000000017 300 #
coedge $-1 -1 -1 $-1 $354 $354 $377 $404 forward $298 $-1 #
edge $-1 -1 -1 $-1 $399 -3.1415926535897887 $397 -1.6653345369377343e-016 $354 $411 forward @7 unknown T -29.025000000000006 243.00000000000003 300 -11.474999999999978 251.77500000000003 300 #
vertex $-1 -1 -1 $-1 $356 $412 #
straight-curve $-1 -1 -1 $-1 -317.24999999999994 283.50000000000017 259.5 2.2482016248659412e-013 1350 0 I I #
point $-1 -1 -1 $-1 -317.25000000000006 -283.5 259.5 #
vertex $-1 -1 -1 $-1 $404 $413 #
straight-curve $-1 -1 -1 $-1 -11.47499999999998 243.00000000000003 259.5 0 0 1350 I I #
vertex $-1 -1 -1 $-1 $404 $414 #
straight-curve $-1 -1 -1 $-1 -29.025000000000006 243.00000000000006 259.5 0 0 1350 I I #
ellipse-curve $-1 -1 -1 $-1 -20.250000000000142 -243.00000000000003 300 0 0 -1 8.7750000000000075 -1.4613310561628632e-015 0 1 I I #
ref_vt-eye-attrib $-1 -1 $-1 $369 $315 1 1 1 1 1 1 1 1 1 1 1 1 1 1 0 1 1 1 $9 $-1 #
ref_vt-eye-attrib $-1 -1 $-1 $375 $324 1 1 1 1 1 1 1 1 1 1 1 1 1 1 0 1 1 1 $9 $-1 #
edge $-1 -1 -1 $-1 $397 -1.6653345369377343e-016 $399 3.1415926535897976 $392 $415 forward @7 unknown T -29.025000000000006 234.22500000000002 300 -11.474999999999978 243.00000000000006 300 #
straight-curve $-1 -1 -1 $-1 -317.25000000000006 -283.5 259.5 0 0 1350 I I #
straight-curve $-1 -1 -1 $-1 202.50000000000006 283.5 259.5 1350 -3.2214490815178651e-013 0 I I #
ref_vt-eye-attrib $-1 -1 $-1 $387 $342 1 1 1 1 1 1 1 1 1 1 1 1 1 1 0 1 1 1 $9 $-1 #
integer_attrib-name_attrib-gen-attrib $-1 -1 $416 $-1 $388 2 1 1 1 1 1 1 1 1 1 1 1 1 1 0 1 1 1 @15 PersistentGfxID 20 #
plane-surface $-1 -1 -1 $-1 -317.24999999999994 283.50000000000017 259.5 1 -1.6653345369377341e-016 0 0 0 1350 forward_v I I I I #
straight-curve $-1 -1 -1 $-1 -317.24999999999994 283.50000000000017 259.5 0 0 1350 I I #
ellipse-curve $-1 -1 -1 $-1 -20.249999999999986 243.00000000000003 300 0 0 -1 8.7750000000000075 -1.4613310561628632e-015 0 1 I I #
point $-1 -1 -1 $-1 -317.24999999999994 283.50000000000017 259.5 #
point $-1 -1 -1 $-1 -11.47499999999998 243.00000000000003 300 #
point $-1 -1 -1 $-1 -29.025000000000006 243.00000000000006 300 #
ellipse-curve $-1 -1 -1 $-1 -20.249999999999986 243.00000000000003 300 0 0 -1 8.7750000000000075 -1.4613310561628632e-015 0 1 I I #
ref_vt-eye-attrib $-1 -1 $-1 $408 $388 1 1 1 1 1 1 1 1 1 1 1 1 1 1 0 1 1 1 $9 $-1 #
End-of-ACIS-data 